<svg width="621" height="550" viewBox="0 0 621 550" fill="none" xmlns="http://www.w3.org/2000/svg">
<path d="M273.711 290.629C273.711 290.629 178.882 309.593 96.6591 403.144C43.6281 463.483 57.0652 514.661 100.686 538.071L160.518 490.016L273.711 290.629Z" fill="#198B43"/>
<path d="M91.9328 443.051C94.6704 438.068 97.6448 433.233 100.847 428.557C101.222 428.011 100.941 427.178 100.418 426.86C99.8181 426.497 99.157 426.758 98.7817 427.307C95.5802 431.98 92.6059 436.818 89.8682 441.798C89.1055 443.188 91.1701 444.439 91.9328 443.051Z" fill="white"/>
<path d="M124.069 419.285C126.231 416.297 128.393 413.31 130.555 410.321C130.943 409.787 130.638 408.936 130.126 408.624C129.515 408.253 128.879 408.533 128.491 409.071L122.004 418.032C121.617 418.568 121.922 419.418 122.433 419.729C123.046 420.1 123.68 419.822 124.069 419.285Z" fill="white"/>
<path d="M130.223 390.522C131.608 389.086 132.993 387.649 134.377 386.21C134.821 385.751 134.853 384.91 134.377 384.456C133.9 384.002 133.16 383.967 132.687 384.456C131.302 385.894 129.917 387.332 128.532 388.768C128.089 389.227 128.057 390.069 128.532 390.522C129.009 390.976 129.751 391.013 130.223 390.522Z" fill="white"/>
<path d="M159.82 383.514C162.763 379.921 165.707 376.33 168.649 372.736C169.067 372.227 169.132 371.485 168.649 370.982C168.221 370.538 167.378 370.47 166.958 370.982C164.015 374.576 161.073 378.167 158.13 381.76C157.711 382.27 157.648 383.014 158.13 383.514C158.558 383.958 159.401 384.028 159.82 383.514Z" fill="white"/>
<path d="M180.554 347.899C183.143 345.734 185.733 343.57 188.321 341.404C188.824 340.983 188.743 340.087 188.321 339.65C187.824 339.134 187.135 339.228 186.63 339.65C184.041 341.815 181.452 343.98 178.864 346.145C178.36 346.567 178.442 347.461 178.864 347.899C179.361 348.415 180.049 348.322 180.554 347.899Z" fill="white"/>
<path d="M295.129 290.629C295.129 290.629 448.484 315.82 507.685 447.034C507.685 447.034 496.26 477.038 479.643 482.512C463.025 487.987 391.622 481.252 391.622 481.252L295.129 290.629Z" fill="#198B43"/>
<path d="M391.84 346.307C394.976 349.339 398.11 352.372 401.245 355.404C402.37 356.492 404.065 354.741 402.935 353.65L393.532 344.553C392.407 343.465 390.713 345.216 391.84 346.307Z" fill="white"/>
<path d="M417.268 384.049C419.346 386.383 421.425 388.717 423.503 391.052C423.927 391.528 424.767 391.531 425.193 391.052C425.646 390.54 425.647 389.808 425.193 389.297L418.959 382.294C418.534 381.816 417.693 381.814 417.268 382.294C416.815 382.805 416.814 383.539 417.268 384.049Z" fill="white"/>
<path d="M444.577 409.683C447.174 413.637 449.77 417.588 452.366 421.54C452.728 422.092 453.416 422.339 454.001 421.984C454.529 421.664 454.796 420.843 454.43 420.287L446.642 408.432C446.278 407.878 445.591 407.631 445.005 407.986C444.478 408.308 444.211 409.128 444.577 409.683Z" fill="white"/>
<path d="M442.225 377.558L448.487 385.616C448.892 386.137 449.755 386.053 450.177 385.616C450.674 385.1 450.584 384.384 450.177 383.86C448.09 381.175 446.002 378.489 443.915 375.804C443.51 375.282 442.648 375.365 442.225 375.804C441.727 376.319 441.818 377.035 442.225 377.558Z" fill="white"/>
<path d="M442.264 530.404C430.715 395.979 366.738 293.125 289.539 293.125C212.341 293.125 148.364 395.979 136.814 530.404H442.264Z" fill="white"/>
<path d="M224.95 386.572C222.995 386.572 221.41 384.927 221.41 382.899V368.824C221.41 366.797 222.995 365.151 224.95 365.151C226.904 365.151 228.489 366.797 228.489 368.824V382.899C228.489 384.927 226.904 386.572 224.95 386.572Z" fill="#AF336A"/>
<path d="M252.891 415.592C250.935 415.592 249.351 413.948 249.351 411.918V397.845C249.351 395.817 250.935 394.172 252.891 394.172C254.846 394.172 256.431 395.817 256.431 397.845V411.918C256.431 413.948 254.846 415.592 252.891 415.592Z" fill="#AF336A"/>
<path d="M256.43 467.053C254.476 467.053 252.891 465.409 252.891 463.38V449.307C252.891 447.278 254.476 445.632 256.43 445.632C258.385 445.632 259.97 447.278 259.97 449.307V463.38C259.97 465.409 258.385 467.053 256.43 467.053Z" fill="#AF336A"/>
<path d="M281.31 337.727C279.355 337.727 277.77 336.082 277.77 334.052V319.979C277.77 317.952 279.355 316.305 281.31 316.305C283.265 316.305 284.85 317.952 284.85 319.979V334.052C284.85 336.082 283.265 337.727 281.31 337.727Z" fill="#AF336A"/>
<path d="M200.76 421.856C198.805 421.856 197.22 420.211 197.22 418.183V404.109C197.22 402.081 198.805 400.436 200.76 400.436C202.715 400.436 204.3 402.081 204.3 404.109V418.183C204.3 420.211 202.715 421.856 200.76 421.856Z" fill="#AF336A"/>
<path d="M350.204 493.223C348.249 493.223 346.664 491.578 346.664 489.55V475.476C346.664 473.448 348.249 471.802 350.204 471.802C352.159 471.802 353.745 473.448 353.745 475.476V489.55C353.745 491.578 352.159 493.223 350.204 493.223Z" fill="#AF336A"/>
<path d="M177.657 493.223C175.703 493.223 174.118 491.578 174.118 489.55V475.476C174.118 473.448 175.703 471.802 177.657 471.802C179.612 471.802 181.197 473.448 181.197 475.476V489.55C181.197 491.578 179.612 493.223 177.657 493.223Z" fill="#AF336A"/>
<path d="M216.72 464.268C214.765 464.268 213.18 462.623 213.18 460.595V446.522C213.18 444.493 214.765 442.847 216.72 442.847C218.674 442.847 220.26 444.493 220.26 446.522V460.595C220.26 462.623 218.674 464.268 216.72 464.268Z" fill="#AF336A"/>
<path d="M381.11 471.269C379.157 471.166 377.655 469.439 377.754 467.414L378.445 453.359C378.544 451.333 380.207 449.774 382.159 449.877C384.113 449.979 385.614 451.705 385.515 453.732L384.824 467.787C384.725 469.813 383.062 471.372 381.11 471.269Z" fill="#AF336A"/>
<path d="M318.793 469.113C316.841 469.01 315.339 467.283 315.438 465.258L316.129 451.202C316.228 449.178 317.891 447.618 319.844 447.721C321.796 447.824 323.299 449.55 323.2 451.576L322.509 465.631C322.41 467.658 320.747 469.217 318.793 469.113Z" fill="#AF336A"/>
<path d="M415.87 493.223C413.914 493.223 412.33 491.578 412.33 489.55V475.476C412.33 473.448 413.914 471.802 415.87 471.802C417.826 471.802 419.41 473.448 419.41 475.476V489.55C419.41 491.578 417.826 493.223 415.87 493.223Z" fill="#AF336A"/>
<path d="M381.635 523.129C379.68 523.129 378.094 521.484 378.094 519.456V505.383C378.094 503.354 379.68 501.71 381.635 501.71C383.59 501.71 385.175 503.354 385.175 505.383V519.456C385.175 521.484 383.59 523.129 381.635 523.129Z" fill="#AF336A"/>
<path d="M431.876 530.404C429.922 530.404 428.337 528.759 428.337 526.731V512.658C428.337 510.629 429.922 508.984 431.876 508.984C433.832 508.984 435.416 510.629 435.416 512.658V526.731C435.416 528.759 433.832 530.404 431.876 530.404Z" fill="#AF336A"/>
<path d="M189.442 359.979C161.881 402.587 142.652 462.463 136.815 530.404H442.265C436.836 467.216 419.823 411.005 395.299 369.173L384.311 352.116" stroke="#15325C" stroke-width="1.33333" stroke-miterlimit="10"/>
<path d="M231.808 222.039C231.808 222.039 217.15 201.923 223.676 174.647C230.203 147.372 279.149 133.193 285.013 134.887C290.876 136.58 313.235 137.736 313.235 137.736C313.235 137.736 340.031 137.632 343.499 164.948C346.968 192.264 335.215 224.237 334.342 228.6C333.47 232.964 248.395 252.379 231.808 222.039Z" fill="#151216"/>
<path d="M305.618 291.446C305.699 300.945 298.278 308.787 289.125 308.872L282.035 308.939C272.881 309.024 265.323 301.323 265.241 291.824L264.931 256.286C264.849 246.788 272.27 238.946 281.425 238.861L288.514 238.795C297.669 238.708 305.226 246.409 305.307 255.909L305.618 291.446Z" fill="white"/>
<path d="M305.618 291.446C305.699 300.945 298.278 308.787 289.125 308.872L282.035 308.939C272.881 309.024 265.323 301.323 265.241 291.824L264.931 256.286C264.849 246.788 272.27 238.946 281.425 238.861L288.514 238.795C297.669 238.708 305.226 246.409 305.307 255.909L305.618 291.446Z" stroke="#15325C" stroke-width="1.33333" stroke-miterlimit="10"/>
<path d="M210.76 229.649C210.523 237.715 216.685 244.454 224.521 244.702C232.357 244.949 238.904 238.613 239.139 230.546C239.376 222.48 233.216 215.74 225.379 215.493C217.542 215.245 210.997 221.583 210.76 229.649Z" fill="white"/>
<path d="M210.76 229.649C210.523 237.715 216.685 244.454 224.521 244.702C232.357 244.949 238.904 238.613 239.139 230.546C239.376 222.48 233.216 215.74 225.379 215.493C217.542 215.245 210.997 221.583 210.76 229.649Z" stroke="#15325C" stroke-width="1.33333" stroke-miterlimit="10"/>
<path d="M231.472 232.269C231.5 231.959 231.498 231.644 231.491 231.334C231.483 230.996 231.46 230.66 231.423 230.325C231.409 230.186 231.446 229.952 231.424 230.309C231.43 230.215 231.394 230.1 231.379 230.007C231.343 229.783 231.3 229.561 231.251 229.34C231.148 228.883 231.012 228.437 230.849 227.998C230.739 227.7 230.941 228.192 230.809 227.899C230.762 227.797 230.717 227.694 230.668 227.592C230.547 227.344 230.413 227.101 230.266 226.868C230.204 226.769 230.137 226.673 230.072 226.576C229.895 226.315 230.188 226.704 229.986 226.464C229.798 226.239 229.607 226.021 229.394 225.819C229.303 225.732 229.207 225.654 229.115 225.568C228.931 225.397 229.26 225.677 229.129 225.579C229.078 225.539 229.027 225.501 228.975 225.463C228.726 225.283 228.464 225.121 228.193 224.98C228.132 224.948 228.07 224.917 228.008 224.886C227.957 224.861 227.906 224.837 227.855 224.814C227.986 224.871 227.996 224.876 227.881 224.826C227.714 224.765 227.551 224.697 227.382 224.643C227.02 224.525 226.651 224.434 226.277 224.367C226.25 224.362 225.922 224.31 226.167 224.345C226.063 224.33 225.957 224.319 225.853 224.309C225.636 224.285 225.417 224.272 225.197 224.263C224.676 224.242 224.155 224.258 223.635 224.299C223.044 224.342 222.538 223.743 222.538 223.16C222.538 222.508 223.042 222.068 223.635 222.023C226.732 221.787 229.892 222.596 231.84 225.255C233.039 226.892 233.564 228.969 233.671 230.999C233.692 231.419 233.703 231.849 233.663 232.269C233.608 232.881 233.201 233.407 232.568 233.407C232.018 233.407 231.416 232.884 231.472 232.269Z" fill="#15325C"/>
<path d="M357.278 231.726C357.041 239.792 350.496 246.13 342.658 245.883C334.822 245.635 328.662 238.895 328.898 230.829C329.135 222.762 335.68 216.426 343.517 216.672C351.353 216.92 357.514 223.66 357.278 231.726Z" fill="white"/>
<path d="M357.278 231.726C357.041 239.792 350.496 246.13 342.658 245.883C334.822 245.635 328.662 238.895 328.898 230.829C329.135 222.762 335.68 216.426 343.517 216.672C351.353 216.92 357.514 223.66 357.278 231.726Z" stroke="#15325C" stroke-width="1.33333" stroke-miterlimit="10"/>
<path d="M334.259 232.964C334.14 229.209 336.007 225.264 339.453 223.813C341.248 223.057 343.211 223.076 345.098 223.339C345.687 223.422 346.006 224.203 345.865 224.738C345.69 225.397 345.104 225.615 344.516 225.533C343.077 225.332 341.742 225.378 340.41 225.858C340.338 225.884 339.938 226.055 340.177 225.945C340.049 226.006 339.92 226.067 339.793 226.135C339.526 226.278 339.275 226.443 339.029 226.617C338.773 226.802 339.114 226.527 338.881 226.738C338.785 226.825 338.688 226.91 338.595 227.001C338.405 227.187 338.232 227.387 338.062 227.591C338.021 227.64 337.984 227.689 337.947 227.739C338.116 227.522 338.02 227.636 337.987 227.687C337.921 227.791 337.848 227.889 337.781 227.992C337.64 228.214 337.51 228.445 337.39 228.68C337.337 228.786 337.287 228.891 337.238 228.999C337.204 229.077 337.058 229.448 337.186 229.111C337.102 229.33 337.019 229.551 336.948 229.776C336.819 230.18 336.716 230.593 336.633 231.011C336.597 231.191 336.566 231.374 336.539 231.556C336.416 231.922 336.521 231.684 336.539 231.556C336.514 231.632 336.517 231.735 336.508 231.813C336.471 232.194 336.44 232.581 336.453 232.964C336.499 234.428 334.307 234.426 334.259 232.964Z" fill="#15325C"/>
<path d="M328.895 235.065C328.68 257.087 311.14 274.923 289.918 274.701L277.386 274.569C256.164 274.349 238.974 256.148 239.189 234.125L239.609 190.925C239.824 168.904 257.363 151.068 278.586 151.29L291.118 151.421C312.34 151.643 329.529 169.843 329.316 191.866L328.895 235.065Z" fill="white"/>
<path d="M328.895 235.065C328.68 257.087 311.14 274.923 289.918 274.701L277.386 274.569C256.164 274.349 238.974 256.148 239.189 234.125L239.609 190.925C239.824 168.904 257.363 151.068 278.586 151.29L291.118 151.421C312.34 151.643 329.529 169.843 329.316 191.866L328.895 235.065Z" stroke="#15325C" stroke-width="1.33333" stroke-miterlimit="10"/>
<path d="M336.927 160.733C333.787 156.178 322.644 148.611 313.947 144.633C315.761 102.705 207.656 78.9603 230.38 139.383C230.38 139.383 194.681 123.625 188.693 142.179C174.128 187.316 278.058 201.484 307.461 161.432C313.637 163.824 321.23 168.433 322.733 176.91C325.344 191.628 329.001 224.172 329.001 224.172C329.001 224.172 330.75 216.321 333.693 209.747C336.636 203.174 341.459 167.311 336.927 160.733Z" fill="#151216"/>
<path d="M266.452 234.413C265.916 240.866 260.441 245.647 254.222 245.091C248.004 244.536 243.396 238.855 243.932 232.4C244.466 225.949 249.941 221.166 256.16 221.722C262.38 222.278 266.988 227.959 266.452 234.413Z" fill="#E98CC3"/>
<path d="M325.344 233.899C324.808 240.352 319.333 245.133 313.115 244.577C306.894 244.022 302.288 238.341 302.822 231.886C303.358 225.433 308.833 220.652 315.052 221.208C321.271 221.764 325.878 227.445 325.344 233.899Z" fill="#E98CC3"/>
<path d="M239.21 232.022C239.21 232.022 258.422 244.758 269.912 237.685C281.402 230.613 287.88 224.614 296.981 232.893C305.888 240.996 324.546 242.496 328.645 228.621C328.735 228.32 328.818 228.012 328.892 227.695C332.423 212.831 328.735 228.32 328.735 228.32C328.735 228.32 331.634 245.813 321.027 258.825C310.418 271.836 298.534 274.733 292.891 274.703C287.25 274.672 262.378 276.818 251.638 263.921C240.897 251.022 239.072 246.165 239.21 232.022Z" fill="#151216"/>
<path d="M283.903 203.478L278.782 224.754L289.539 224.643L283.903 203.478Z" fill="#AF336A"/>
<path d="M260.383 211.801C260.262 214.776 257.84 217.086 254.972 216.961C252.105 216.835 249.878 214.321 250 211.346C250.121 208.371 252.543 206.062 255.41 206.187C258.278 206.312 260.505 208.825 260.383 211.801Z" fill="#15325C"/>
<path d="M315.379 211.801C315.258 214.776 312.836 217.087 309.97 216.961C307.102 216.836 304.876 214.322 304.996 211.347C305.117 208.371 307.539 206.061 310.407 206.186C313.274 206.313 315.501 208.826 315.379 211.801Z" fill="#15325C"/>
<path d="M249.076 200.087H263.862H265.953C267.107 200.087 267.108 198.226 265.953 198.226H251.168H249.076C247.922 198.226 247.92 200.087 249.076 200.087Z" fill="#15325C"/>
<path d="M300.745 196.732L316.843 200.235L300.745 196.732Z" fill="#FFFAF9"/>
<path d="M300.507 197.629C305.204 198.651 309.899 199.673 314.596 200.695C315.267 200.84 315.935 200.986 316.605 201.132C317.73 201.376 318.213 199.584 317.081 199.337C312.385 198.316 307.688 197.293 302.991 196.272C302.323 196.126 301.652 195.98 300.982 195.835C299.857 195.589 299.377 197.383 300.507 197.629Z" fill="#15325C"/>
<path d="M278.782 246.065H293.104H295.129C296.284 246.065 296.285 244.204 295.129 244.204H280.807H278.782C277.629 244.204 277.626 246.065 278.782 246.065Z" fill="#FFFAF9"/>
<path d="M295.131 435.8L199.613 412.359L186.155 453.23L289.54 491.687L295.131 435.8Z" fill="white"/>
<path d="M295.131 435.8L199.613 412.359L186.155 453.23L289.54 491.687L295.131 435.8Z" stroke="#15325C" stroke-width="1.33333" stroke-miterlimit="10"/>
<path d="M507.685 447.033C533.93 505.203 514.776 539.766 473.583 547.874C422.505 557.928 337.774 530.207 266.494 490.682L283.068 423.069C283.068 423.069 431.147 432.162 444.128 433.778L491.847 434.843L501.945 435.19L507.685 447.033Z" fill="#198B43"/>
<path d="M294.268 504.916L310.996 424.801C294.373 423.763 283.069 423.068 283.069 423.068L266.493 490.681C275.504 495.357 284.642 500.69 294.268 504.916Z" fill="#151216"/>
<path d="M283.068 423.068C283.068 423.068 431.145 432.161 444.128 433.779" stroke="#15325C" stroke-width="1.33333" stroke-miterlimit="10"/>
<path d="M318.094 495.884C322.778 497.47 327.461 499.056 332.145 500.643C333.61 501.139 334.238 498.745 332.78 498.25C328.096 496.663 323.413 495.078 318.73 493.491C317.265 492.995 316.636 495.391 318.094 495.884Z" fill="white"/>
<path d="M324.876 451.575C330.056 453.061 335.236 454.549 340.415 456.036C341.9 456.461 342.535 454.07 341.051 453.643C335.871 452.157 330.691 450.669 325.512 449.182C324.026 448.757 323.394 451.148 324.876 451.575Z" fill="white"/>
<path d="M364.891 490.281L378.302 494.374C379.78 494.825 380.413 492.431 378.938 491.982C374.468 490.618 369.997 489.253 365.527 487.888C364.048 487.438 363.416 489.831 364.891 490.281Z" fill="white"/>
<path d="M404.792 522.428C410.08 523.207 415.305 524.381 420.43 525.94C421.908 526.39 422.541 523.997 421.064 523.547C415.939 521.989 410.715 520.814 405.428 520.036C404.783 519.941 404.151 520.2 403.957 520.903C403.797 521.483 404.153 522.335 404.792 522.428Z" fill="white"/>
<path d="M406.147 465.413C411.871 466.004 417.596 466.593 423.32 467.183C424.851 467.341 424.841 464.859 423.32 464.702C417.596 464.112 411.871 463.522 406.147 462.932C404.617 462.774 404.628 465.257 406.147 465.413Z" fill="white"/>
<path d="M457.773 511.561C463.835 512.424 469.9 513.287 475.962 514.148C476.606 514.24 477.237 513.987 477.432 513.282C477.592 512.704 477.236 511.847 476.598 511.756C470.534 510.894 464.472 510.032 458.408 509.169C457.763 509.078 457.132 509.331 456.937 510.036C456.777 510.612 457.133 511.471 457.773 511.561Z" fill="white"/>
<path d="M469.708 465.278C474.216 465.953 478.722 466.627 483.229 467.302C483.867 467.397 484.513 467.138 484.699 466.436C484.853 465.853 484.507 465.006 483.865 464.909C479.356 464.234 474.851 463.56 470.344 462.886C469.705 462.79 469.06 463.049 468.873 463.753C468.719 464.334 469.065 465.182 469.708 465.278Z" fill="white"/>
<path d="M256.281 298.927C256.281 298.927 248.924 239.147 255.986 234.022C265.608 227.038 270.36 266.056 270.36 266.056C270.36 266.056 297.037 239.335 303.335 243.181C309.634 247.025 303.335 262.788 303.335 262.788C303.335 262.788 307.781 258.173 312.968 264.325C318.155 270.477 329.27 283.933 312.968 304.694C296.665 325.455 268.879 374.666 268.879 374.666L229.235 345.061L256.281 298.927Z" fill="white"/>
<path d="M256.281 298.927C256.281 298.927 248.924 239.147 255.986 234.022C265.608 227.038 270.36 266.056 270.36 266.056C270.36 266.056 297.037 239.335 303.335 243.181C309.634 247.025 303.335 262.788 303.335 262.788C303.335 262.788 307.781 258.173 312.968 264.325C318.155 270.477 329.27 283.933 312.968 304.694C296.665 325.455 268.879 374.666 268.879 374.666L229.235 345.061L256.281 298.927Z" stroke="#15325C" stroke-width="1.33333" stroke-miterlimit="10"/>
<path d="M62.5425 485.122C65.7571 537.62 134.072 561.341 174.128 540.145C226.165 512.607 266.734 436.95 286.404 366.76L227.568 335.823L112.095 443.541L62.5425 485.122Z" fill="#198B43"/>
<path d="M286.405 366.76L227.57 335.824L207.951 354.124L278.149 392.997C281.772 383.531 283.994 375.364 286.405 366.76Z" fill="#151216"/>
<path d="M227.569 335.824L112.096 443.542" stroke="#15325C" stroke-width="1.33333" stroke-miterlimit="10"/>
<path d="M171.945 419.822C174.838 417.072 177.731 414.321 180.625 411.573C181.101 411.118 181.068 410.277 180.625 409.818C180.151 409.326 179.412 409.363 178.934 409.818C176.041 412.567 173.148 415.318 170.254 418.068C169.778 418.521 169.811 419.363 170.254 419.822C170.728 420.314 171.467 420.276 171.945 419.822Z" fill="white"/>
<path d="M213.398 408.403C216.187 405.715 218.765 402.801 221.11 399.692C221.507 399.164 221.605 398.452 221.11 397.936C220.696 397.508 219.819 397.406 219.42 397.936C217.074 401.047 214.496 403.961 211.707 406.649C211.234 407.104 211.263 407.942 211.707 408.403C212.179 408.893 212.924 408.86 213.398 408.403Z" fill="white"/>
<path d="M207.824 382.155C210.711 379.398 213.539 376.579 216.309 373.696C217.396 372.564 215.707 370.809 214.619 371.942C211.849 374.824 209.019 377.644 206.132 380.401C205.658 380.853 205.69 381.694 206.132 382.155C206.606 382.646 207.347 382.609 207.824 382.155Z" fill="white"/>
<path d="M248.71 408.929C251.134 406.236 253.56 403.542 255.984 400.849C256.425 400.361 256.453 399.58 255.984 399.095C255.538 398.633 254.736 398.604 254.294 399.095C251.87 401.788 249.444 404.482 247.019 407.173C246.578 407.662 246.552 408.442 247.019 408.929C247.464 409.39 248.268 409.42 248.71 408.929Z" fill="white"/>
<path d="M215.941 458.994C219.047 455.751 222.153 452.507 225.259 449.263C226.346 448.129 224.656 446.375 223.568 447.509C220.463 450.752 217.357 453.996 214.25 457.238C213.164 458.372 214.855 460.128 215.941 458.994Z" fill="white"/>
<path d="M140.384 534.571C143.49 531.329 146.595 528.085 149.702 524.842C150.788 523.708 149.099 521.953 148.011 523.087C144.905 526.331 141.799 529.575 138.693 532.817C137.607 533.951 139.297 535.705 140.384 534.571Z" fill="white"/>
<path d="M172.329 463.862C176.084 460.74 179.839 457.619 183.594 454.495C184.099 454.076 184.015 453.179 183.594 452.741C183.096 452.224 182.409 452.321 181.904 452.741C178.149 455.865 174.394 458.986 170.638 462.108C170.134 462.528 170.217 463.426 170.638 463.862C171.136 464.38 171.823 464.283 172.329 463.862Z" fill="white"/>
<path d="M177.963 513.883C180.386 511.548 182.811 509.213 185.235 506.879C185.694 506.436 185.698 505.566 185.235 505.123C184.743 504.657 184.034 504.653 183.544 505.123C181.12 507.459 178.696 509.794 176.273 512.128C175.814 512.57 175.809 513.441 176.273 513.883C176.764 514.351 177.473 514.355 177.963 513.883Z" fill="white"/>
<path d="M123.953 458.908C126.932 456.44 129.911 453.972 132.89 451.505C133.395 451.087 133.311 450.188 132.89 449.751C132.392 449.233 131.706 449.331 131.2 449.751C128.221 452.218 125.242 454.686 122.261 457.154C121.757 457.572 121.842 458.471 122.261 458.908C122.761 459.425 123.446 459.327 123.953 458.908Z" fill="white"/>
<path d="M130.283 506.969C132.665 504.059 135.047 501.15 137.43 498.24C137.848 497.728 137.912 496.985 137.43 496.484C137.001 496.039 136.16 495.972 135.739 496.484C133.356 499.396 130.975 502.305 128.592 505.215C128.174 505.725 128.109 506.469 128.592 506.969C129.02 507.413 129.863 507.483 130.283 506.969Z" fill="white"/>
<path d="M90.1915 500.934C93.3057 498.238 96.4211 495.541 99.5353 492.845C100.031 492.418 99.9633 491.536 99.5353 491.091C99.0452 490.583 98.3422 490.662 97.8449 491.091C94.7307 493.787 91.6153 496.483 88.5011 499.18C88.005 499.609 88.0743 500.491 88.5011 500.934C88.9925 501.442 89.6942 501.364 90.1915 500.934Z" fill="white"/>
<path d="M406.239 143.907C408.393 142.55 410.604 141.278 412.847 140.085C415.89 138.463 423.02 133.867 426.586 135.003C430.49 136.248 431.07 146.625 431.582 150.112C432.364 155.443 432.885 160.816 433.272 166.192C433.495 169.266 438.106 168.928 437.883 165.841C437.345 158.395 436.599 150.911 435.153 143.59C434.339 139.478 433.443 132.484 429.086 130.612C421.76 127.462 409.669 136.141 403.669 139.922C401.121 141.527 403.7 145.507 406.239 143.907Z" fill="#FFFEFD"/>
<path d="M443.168 165.986C442.535 169.311 438.762 171.335 434.745 170.51C430.727 169.684 427.985 166.321 428.618 162.996C429.252 159.672 433.025 157.646 437.041 158.472C441.059 159.297 443.802 162.662 443.168 165.986Z" fill="#FFFEFD"/>
<path d="M440.272 223.579C440.281 231.474 434.119 237.881 426.51 237.89C418.903 237.898 412.729 231.506 412.72 223.61C412.712 215.716 418.874 209.308 426.482 209.3C434.09 209.291 440.264 215.685 440.272 223.579Z" fill="#FFFEFD"/>
<path d="M427.551 223.97C427.552 225.07 426.693 225.963 425.634 225.964C424.572 225.966 423.711 225.075 423.71 223.973C423.709 222.873 424.569 221.98 425.629 221.98C426.689 221.979 427.55 222.869 427.551 223.97Z" fill="#FFFEFD"/>
<path d="M458.313 207.086C458.026 208.588 456.62 209.566 455.173 209.268C453.724 208.97 452.783 207.511 453.07 206.009C453.357 204.507 454.763 203.529 456.21 203.827C457.658 204.125 458.599 205.584 458.313 207.086Z" fill="#FFFEFD"/>
<path d="M416.234 246.996C415.976 248.348 414.711 249.227 413.408 248.96C412.105 248.692 411.257 247.379 411.515 246.026C411.774 244.674 413.038 243.794 414.343 244.062C415.646 244.33 416.492 245.644 416.234 246.996Z" fill="#FFFEFD"/>
<path d="M417.213 259.353C417.014 260.405 416.03 261.089 415.015 260.88C414.001 260.672 413.344 259.651 413.544 258.6C413.745 257.547 414.729 256.864 415.743 257.072C416.755 257.28 417.414 258.301 417.213 259.353Z" fill="#FFFEFD"/>
<path d="M424.945 195.637C424.6 197.439 422.913 198.612 421.176 198.254C419.438 197.898 418.309 196.147 418.653 194.344C418.996 192.54 420.685 191.369 422.422 191.725C424.159 192.083 425.289 193.833 424.945 195.637Z" fill="#FFFEFD"/>
<path d="M559.602 210.152C559.602 210.152 552.32 209.368 548.798 206.964C545.276 204.559 545.736 201.078 548.651 200.709C551.564 200.342 557.749 203.63 557.749 203.63C557.749 203.63 550.176 197.049 552.141 193.835C554.106 190.619 556.201 191.156 560.664 197.725C560.664 197.725 558.298 193.144 561.252 191.318C564.206 189.493 565.066 197.31 565.066 197.31C565.066 197.31 564.501 189.864 566.813 188.643C569.127 187.424 571.105 189.86 570.643 195.576C570.643 195.576 572.619 185.34 576.775 186.272C580.933 187.204 578.557 194.062 576.033 203.141C573.508 212.22 563.073 210.715 559.602 210.152Z" fill="#5CA870"/>
<path d="M589.114 251.163C589.114 251.163 583.859 253.968 575.254 248.605C568.92 244.659 555.633 235.35 552.98 226.97C550.328 218.59 553.905 212.036 561.306 206.699C568.71 201.363 580.509 199.276 586.825 202.953C593.14 206.63 593.523 214.925 594.671 223.514C595.818 232.104 596.867 248.14 589.114 251.163Z" fill="#E6458E"/>
<path d="M568.762 232.59C568.762 232.59 572.822 230.9 571.251 223.115C569.68 215.331 566.01 211.819 563.017 211.506C560.024 211.193 553.797 215.77 556.724 223.285C559.65 230.799 565.68 233.862 568.762 232.59Z" fill="#EC6AAA"/>
<path d="M586.396 208.645C586.813 210.235 586.408 211.734 585.49 211.993C584.574 212.253 583.491 211.175 583.075 209.584C582.656 207.995 583.062 206.497 583.98 206.237C584.897 205.978 585.977 207.056 586.396 208.645Z" fill="#FFFEFD"/>
<path d="M586.396 208.645C586.813 210.235 586.408 211.734 585.49 211.993C584.574 212.253 583.491 211.175 583.075 209.584C582.656 207.995 583.062 206.497 583.98 206.237C584.897 205.978 585.977 207.056 586.396 208.645Z" stroke="#15325C" stroke-miterlimit="10"/>
<path d="M575.408 211.957C575.943 213.509 575.652 215.035 574.757 215.369C573.861 215.701 572.702 214.714 572.167 213.162C571.632 211.611 571.923 210.083 572.819 209.752C573.713 209.418 574.873 210.407 575.408 211.957Z" fill="#FFFEFD"/>
<path d="M575.408 211.957C575.943 213.509 575.652 215.035 574.757 215.369C573.861 215.701 572.702 214.714 572.167 213.162C571.632 211.611 571.923 210.083 572.819 209.752C573.713 209.418 574.873 210.407 575.408 211.957Z" stroke="#15325C" stroke-miterlimit="10"/>
<path d="M562.758 218.488C563.401 219.995 563.219 221.54 562.35 221.939C561.481 222.34 560.255 221.444 559.61 219.937C558.966 218.431 559.149 216.887 560.018 216.486C560.887 216.085 562.114 216.982 562.758 218.488Z" fill="#FFFEFD"/>
<path d="M562.758 218.488C563.401 219.995 563.219 221.54 562.35 221.939C561.481 222.34 560.255 221.444 559.61 219.937C558.966 218.431 559.149 216.887 560.018 216.486C560.887 216.085 562.114 216.982 562.758 218.488Z" stroke="#15325C" stroke-miterlimit="10"/>
<path d="M572.254 222.901C572.898 224.409 572.716 225.953 571.846 226.352C570.978 226.753 569.751 225.856 569.107 224.35C568.463 222.844 568.646 221.299 569.515 220.899C570.384 220.499 571.611 221.395 572.254 222.901Z" fill="#FFFEFD"/>
<path d="M572.254 222.901C572.898 224.409 572.716 225.953 571.846 226.352C570.978 226.753 569.751 225.856 569.107 224.35C568.463 222.844 568.646 221.299 569.515 220.899C570.384 220.499 571.611 221.395 572.254 222.901Z" stroke="#15325C" stroke-miterlimit="10"/>
<path d="M584.467 217.885C585.001 219.437 584.709 220.962 583.815 221.296C582.92 221.629 581.76 220.641 581.225 219.089C580.69 217.539 580.982 216.01 581.876 215.679C582.772 215.345 583.931 216.334 584.467 217.885Z" fill="#FFFEFD"/>
<path d="M584.467 217.885C585.001 219.437 584.709 220.962 583.815 221.296C582.92 221.629 581.76 220.641 581.225 219.089C580.69 217.539 580.982 216.01 581.876 215.679C582.772 215.345 583.931 216.334 584.467 217.885Z" stroke="#15325C" stroke-miterlimit="10"/>
<path d="M582.641 230.061C583.175 231.613 582.884 233.139 581.989 233.472C581.094 233.805 579.934 232.817 579.399 231.265C578.864 229.715 579.156 228.186 580.05 227.855C580.946 227.521 582.105 228.51 582.641 230.061Z" fill="#FFFEFD"/>
<path d="M582.641 230.061C583.175 231.613 582.884 233.139 581.989 233.472C581.094 233.805 579.934 232.817 579.399 231.265C578.864 229.715 579.156 228.186 580.05 227.855C580.946 227.521 582.105 228.51 582.641 230.061Z" stroke="#15325C" stroke-miterlimit="10"/>
<path d="M576.069 237.016C576.812 238.472 576.733 240.028 575.892 240.488C575.051 240.949 573.768 240.143 573.027 238.687C572.285 237.229 572.363 235.675 573.205 235.213C574.045 234.753 575.328 235.559 576.069 237.016Z" fill="#FFFEFD"/>
<path d="M576.069 237.016C576.812 238.472 576.733 240.028 575.892 240.488C575.051 240.949 573.768 240.143 573.027 238.687C572.285 237.229 572.363 235.675 573.205 235.213C574.045 234.753 575.328 235.559 576.069 237.016Z" stroke="#15325C" stroke-miterlimit="10"/>
<path d="M565.879 231.135C566.747 232.515 566.803 234.071 566.007 234.61C565.211 235.149 563.862 234.467 562.996 233.086C562.128 231.706 562.07 230.151 562.867 229.611C563.663 229.073 565.011 229.755 565.879 231.135Z" fill="#FFFEFD"/>
<path d="M565.879 231.135C566.747 232.515 566.803 234.071 566.007 234.61C565.211 235.149 563.862 234.467 562.996 233.086C562.128 231.706 562.07 230.151 562.867 229.611C563.663 229.073 565.011 229.755 565.879 231.135Z" stroke="#15325C" stroke-miterlimit="10"/>
<path d="M592.676 225.202C592.819 226.842 592.166 228.245 591.219 228.332C590.272 228.421 589.39 227.162 589.248 225.522C589.107 223.881 589.758 222.479 590.705 222.39C591.653 222.302 592.535 223.561 592.676 225.202Z" fill="#FFFEFD"/>
<path d="M592.676 225.202C592.819 226.842 592.166 228.245 591.219 228.332C590.272 228.421 589.39 227.162 589.248 225.522C589.107 223.881 589.758 222.479 590.705 222.39C591.653 222.302 592.535 223.561 592.676 225.202Z" stroke="#15325C" stroke-miterlimit="10"/>
<path d="M591.393 236.026C591.653 237.652 591.103 239.1 590.165 239.261C589.227 239.422 588.256 238.235 587.996 236.611C587.736 234.985 588.286 233.536 589.224 233.375C590.163 233.212 591.132 234.4 591.393 236.026Z" fill="#FFFEFD"/>
<path d="M591.393 236.026C591.653 237.652 591.103 239.1 590.165 239.261C589.227 239.422 588.256 238.235 587.996 236.611C587.736 234.985 588.286 233.536 589.224 233.375C590.163 233.212 591.132 234.4 591.393 236.026Z" stroke="#15325C" stroke-miterlimit="10"/>
<path d="M586.355 242.594C586.89 244.145 586.599 245.672 585.703 246.005C584.809 246.338 583.648 245.35 583.114 243.799C582.578 242.248 582.87 240.72 583.765 240.388C584.661 240.055 585.82 241.043 586.355 242.594Z" fill="#FFFEFD"/>
<path d="M586.802 242.212C587.338 243.763 587.046 245.29 586.151 245.622C585.257 245.956 584.096 244.967 583.561 243.417C583.026 241.866 583.318 240.338 584.213 240.005C585.108 239.673 586.268 240.66 586.802 242.212Z" stroke="#15325C" stroke-miterlimit="10"/>
<path d="M456.293 276.998C456.376 277.02 456.461 277.047 456.544 277.075C456.648 277.109 456.751 277.151 456.855 277.187C456.935 277.216 457.138 277.31 456.806 277.165C456.875 277.196 456.945 277.223 457.015 277.256C457.83 277.636 458.608 278.083 459.344 278.614C461.847 280.423 463.757 283.241 465.047 286.167C465.311 286.767 466.147 286.912 466.656 286.603C467.25 286.242 467.34 285.535 467.076 284.933C465.619 281.627 463.476 278.683 460.606 276.57C459.497 275.751 458.193 274.973 456.857 274.629C455.39 274.252 454.82 276.619 456.293 276.998Z" fill="#15325C"/>
<path d="M462.083 276.368C462.083 276.368 471.882 279.432 476.499 260.848C476.499 260.848 471.332 260.015 466.219 263.963C461.106 267.913 460.468 275.726 462.083 276.368Z" fill="#5DA86E"/>
<path d="M465.311 279.724L463.526 280.098C463.526 280.098 459.584 281.465 460.165 287.937C460.749 294.407 463.984 296.237 464.76 301.199C465.534 306.16 467.008 323.634 476.38 329.236C485.751 334.839 495.709 331.942 500.43 329.439C505.151 326.937 509.155 319.937 508.774 315.315C508.397 310.691 479.485 291.131 479.485 291.131L465.311 279.724Z" fill="#5CA870"/>
<path d="M465.311 279.724L463.526 280.098C463.526 280.098 459.584 281.465 460.165 287.937C460.749 294.407 463.984 296.237 464.76 301.199C465.534 306.16 467.008 323.634 476.38 329.236C485.751 334.839 495.709 331.942 500.43 329.439C505.151 326.937 509.155 319.937 508.774 315.315C508.397 310.691 479.485 291.131 479.485 291.131L465.311 279.724Z" stroke="#15325C" stroke-width="1.33333" stroke-miterlimit="10"/>
<path d="M477.74 322.754C477.74 322.754 474.036 319.782 471.903 313.095C469.767 306.409 469.604 302 466.858 297.879C464.113 293.757 460.096 286.426 462.662 281.307C465.227 276.186 476.097 277.195 485.124 285.752C494.151 294.31 499.666 292.495 506.434 302.474C513.45 312.818 506.923 322.116 504.35 324.601C501.777 327.085 486.259 330.842 477.74 322.754Z" fill="#B6CC64"/>
<path d="M492.023 317.014C492.023 317.014 485.706 317.202 482.11 311.038C478.514 304.873 478.523 298.765 481.432 295.776C484.341 292.789 491.45 293.461 496.134 298.263C500.819 303.064 500.171 310.172 499.603 311.805C499.035 313.437 498.25 317.083 492.433 317.014" fill="#AF336A"/>
<path d="M574.399 473.974L606.486 494.062L616.718 485.471L604.517 451.567L599.052 455.037L603.688 477.998L583.922 461.299L574.399 473.974Z" fill="#B6CC64"/>
<path d="M562.319 427.266C562.319 427.266 555.847 415.104 568.79 408.026C581.735 400.947 588.382 414.561 588.906 419.281C588.906 419.281 595.926 407.042 606.399 410.568C619.342 414.924 612.871 429.212 610.772 431.779C610.772 431.779 620.524 432.893 620.524 443.875C620.524 451.225 617.243 460.119 602.223 460.119C602.223 460.119 603.6 469.195 595.904 474.822C588.207 480.448 580.511 475.366 579.111 472.281C579.111 472.281 580.861 480.268 571.939 482.444C563.019 484.624 557.247 478.633 556.721 472.099C556.721 472.099 547.626 481.901 541.853 471.01C536.081 460.119 546.402 455.037 546.402 455.037C546.402 455.037 538.005 453.586 538.531 445.235C539.054 436.886 551.298 437.431 551.298 437.431C551.298 437.431 544.302 431.804 547.626 425.451C550.949 419.099 560.22 422.003 562.319 427.266Z" fill="#5CA870"/>
<path d="M565.117 457.941C565.117 459.545 563.865 460.846 562.319 460.846C560.773 460.846 559.519 459.545 559.519 457.941C559.519 456.337 560.773 455.037 562.319 455.037C563.865 455.037 565.117 456.337 565.117 457.941Z" stroke="#15325C" stroke-miterlimit="10"/>
<path d="M566.167 442.422C566.167 443.977 564.952 445.236 563.456 445.236C561.958 445.236 560.744 443.977 560.744 442.422C560.744 440.868 561.958 439.609 563.456 439.609C564.952 439.609 566.167 440.868 566.167 442.422Z" stroke="#15325C" stroke-miterlimit="10"/>
<path d="M576.838 426.359C576.838 427.762 575.74 428.901 574.388 428.901C573.035 428.901 571.938 427.762 571.938 426.359C571.938 424.955 573.035 423.817 574.388 423.817C575.74 423.817 576.838 424.955 576.838 426.359Z" stroke="#15325C" stroke-miterlimit="10"/>
<path d="M584.971 441.198C584.971 442.675 583.815 443.875 582.391 443.875C580.965 443.875 579.812 442.675 579.812 441.198C579.812 439.719 580.965 438.521 582.391 438.521C583.815 438.521 584.971 439.719 584.971 441.198Z" stroke="#15325C" stroke-miterlimit="10"/>
<path d="M595.903 430.079C595.903 431.633 594.689 432.894 593.192 432.894C591.694 432.894 590.481 431.633 590.481 430.079C590.481 428.526 591.694 427.266 593.192 427.266C594.689 427.266 595.903 428.526 595.903 430.079Z" stroke="#15325C" stroke-miterlimit="10"/>
<path d="M604.518 446.257C604.518 447.573 603.491 448.64 602.222 448.64C600.955 448.64 599.926 447.573 599.926 446.257C599.926 444.94 600.955 443.875 602.222 443.875C603.491 443.875 604.518 444.94 604.518 446.257Z" stroke="#15325C" stroke-miterlimit="10"/>
<path d="M587.158 461.299C587.158 463.153 585.709 464.657 583.922 464.657C582.135 464.657 580.686 463.153 580.686 461.299C580.686 459.444 582.135 457.941 583.922 457.941C585.709 457.941 587.158 459.444 587.158 461.299Z" stroke="#15325C" stroke-miterlimit="10"/>
<path d="M571.939 469.377C571.939 470.279 571.235 471.009 570.366 471.009C569.496 471.009 568.79 470.279 568.79 469.377C568.79 468.474 569.496 467.743 570.366 467.743C571.235 467.743 571.939 468.474 571.939 469.377Z" stroke="#15325C" stroke-miterlimit="10"/>
<path d="M599.052 458.486C599.052 459.389 598.346 460.119 597.478 460.119C596.608 460.119 595.903 459.389 595.903 458.486C595.903 457.583 596.608 456.852 597.478 456.852C598.346 456.852 599.052 457.583 599.052 458.486Z" stroke="#15325C" stroke-miterlimit="10"/>
<path d="M575.809 450.103C575.809 450.91 575.178 451.567 574.398 451.567C573.62 451.567 572.989 450.91 572.989 450.103C572.989 449.294 573.62 448.639 574.398 448.639C575.178 448.639 575.809 449.294 575.809 450.103Z" stroke="#15325C" stroke-miterlimit="10"/>
<path d="M554.343 463.695C554.343 464.567 553.662 465.274 552.821 465.274C551.98 465.274 551.298 464.567 551.298 463.695C551.298 462.823 551.98 462.116 552.821 462.116C553.662 462.116 554.343 462.823 554.343 463.695Z" stroke="#15325C" stroke-miterlimit="10"/>
<path d="M553.551 449.49C553.551 450.636 552.655 451.567 551.551 451.567C550.445 451.567 549.549 450.636 549.549 449.49C549.549 448.344 550.445 447.413 551.551 447.413C552.655 447.413 553.551 448.344 553.551 449.49Z" stroke="#15325C" stroke-miterlimit="10"/>
<path d="M594.504 440.699C594.504 441.299 594.034 441.787 593.455 441.787C592.876 441.787 592.406 441.299 592.406 440.699C592.406 440.097 592.876 439.61 593.455 439.61C594.034 439.61 594.504 440.097 594.504 440.699Z" stroke="#15325C" stroke-miterlimit="10"/>
<path d="M607.536 434.184C607.536 435.512 606.498 436.589 605.219 436.589C603.938 436.589 602.9 435.512 602.9 434.184C602.9 432.856 603.938 431.779 605.219 431.779C606.498 431.779 607.536 432.856 607.536 434.184Z" stroke="#15325C" stroke-miterlimit="10"/>
<path d="M430.6 102.789C424.572 99.0497 416.429 92.1044 415.485 74.1176C414.541 56.1308 428.469 40.6151 444.601 43.7323C460.734 46.8477 460.506 57.855 476.943 60.362C493.379 62.8711 500.091 66.1823 502.938 78.7812C505.788 91.3787 499.542 99.9969 478.972 107.698C458.401 115.399 440.206 108.747 430.6 102.789Z" fill="#655CBA"/>
<path d="M443.999 62.5455C442.733 66.8896 437.961 69.1951 433.337 67.6945C428.714 66.1929 425.992 61.4532 427.256 57.1094C428.521 52.7629 433.294 50.4581 437.919 51.9594C442.541 53.4603 445.264 58.2007 443.999 62.5455Z" fill="#FFFEFD"/>
<path d="M455.12 63.2031C454.533 65.2164 452.473 66.335 450.518 65.6994C448.563 65.0648 447.452 62.9176 448.04 60.9032C448.626 58.8892 450.685 57.7717 452.64 58.4062C454.595 59.0418 455.706 61.189 455.12 63.2031Z" fill="#FFFEFD"/>
<path d="M496.79 70.5735C496.79 70.5735 482.633 67.4244 484.33 59.1893C486.8 47.2087 500.957 57.3085 507.148 64.3496C513.34 71.3891 517.046 84.7621 507.082 93.4534C501.352 98.4535 486.112 86.2818 499.648 77.0032C499.648 77.0032 490.123 84.1519 487.487 78.8817C484.365 72.635 491.143 71.0983 496.79 70.5735Z" fill="#5CA870"/>
<path d="M505.949 70.2889C505.949 70.2889 516.964 67.1898 517.74 58.3541C518.516 49.5195 527.13 62.284 521.568 67.6362C516.006 72.9895 510.066 74.2325 507.764 74.0098C505.463 73.7861 503.94 72.0588 505.949 70.2889Z" fill="#5CA870"/>
<path d="M100.662 188.259C96.6729 186.809 92.2875 190.951 92.2875 190.951C92.2875 190.951 93.1553 181.549 83.6633 181.452C74.1713 181.355 73.3495 194.05 73.3495 194.05C73.3495 194.05 69.017 182.311 58.5474 188.664C48.0774 195.015 57.9222 202.526 57.9222 202.526C57.9222 202.526 46.7098 200.234 45.2457 207.153C44.0783 212.672 49.314 213.976 51.4798 214.279C50.6342 214.392 49.27 215.045 47.6857 217.618C44.4749 222.829 49.2719 227.357 50.8466 230.335C51.1955 230.995 51.6042 231.435 52.0296 231.732C52.1755 232.916 52.676 233.797 52.676 233.797C52.676 233.797 71.995 270.363 76.681 279.231C81.3658 288.099 83.6017 288.259 86.8614 287.852C90.1215 287.446 117.048 277.432 120.08 275.214C123.113 272.996 124.218 269.379 124.089 265.614C123.959 261.85 114.703 229.888 112.584 221.822C111.426 217.416 110.616 212.783 108.842 209.775L107.739 204.428L106.928 198.43C106.928 198.43 104.651 189.708 100.662 188.259Z" fill="#E98CC3"/>
<path d="M107.501 153.8C102.765 152.154 97.9274 150.721 93.0267 149.66C91.8365 149.403 90.5432 149.115 89.2396 148.965C89.1282 148.711 89.0168 148.457 88.9053 148.203C88.7945 147.951 88.6852 147.7 88.5755 147.448C88.238 146.678 87.2489 146.255 86.4843 146.66C85.7165 147.068 85.3201 147.992 85.6817 148.819C85.7117 148.888 85.7432 148.959 85.7732 149.029C85.5894 149.065 85.4072 149.107 85.2264 149.155C85.1821 149.108 85.1376 149.06 85.0946 149.014C84.5257 148.409 83.532 148.202 82.8643 148.829C82.3029 149.355 82.0776 150.328 82.5489 150.983C82.2726 151.418 82.0817 151.909 81.9518 152.429C81.9445 152.43 81.9369 152.429 81.9295 152.43C81.5397 152.498 81.0982 152.76 80.8789 153.107C80.4444 153.796 80.4791 154.921 81.2415 155.369C81.3853 155.453 81.5291 155.537 81.6717 155.621C81.6263 157.493 81.6902 159.378 81.7176 161.236C81.7931 166.148 81.9372 171.058 82.0994 175.966C82.2991 182.014 82.533 188.06 82.778 194.104C83.0504 200.802 83.3401 207.498 83.641 214.193C83.9369 220.794 84.2421 227.393 84.5553 233.993C84.8321 239.831 85.1137 245.667 85.4017 251.504C85.6155 255.829 85.8305 260.154 86.0495 264.481C86.1551 266.571 86.2156 268.671 86.3695 270.759C86.3756 270.848 86.3782 270.938 86.3832 271.028C86.4708 272.728 88.4243 274.039 89.9898 273.696C91.8116 273.297 92.7434 271.772 92.6483 269.953C92.577 268.543 92.504 267.13 92.4327 265.72C92.241 261.952 92.052 258.183 91.8651 254.413C91.5964 249.007 91.3326 243.601 91.0724 238.194C90.7655 231.798 90.4653 225.404 90.1733 219.007C89.8696 212.365 89.5746 205.723 89.2943 199.079C89.0305 192.83 88.7798 186.578 88.554 180.326C88.3691 175.208 88.1977 170.089 88.0781 164.968C88.066 164.431 88.0543 163.896 88.0422 163.36C88.0422 163.31 88.0407 163.259 88.0392 163.208C88.0359 163.001 88.0318 162.795 88.0287 162.588C88.0136 161.691 88 160.794 87.9925 159.897C87.9872 159.317 87.9846 158.739 87.9843 158.159C88.1143 158.059 88.2335 157.945 88.3159 157.814C88.4674 157.575 88.5585 157.28 88.5848 156.981C89.0337 157.078 89.5131 156.998 89.8889 156.644C90.1372 156.411 90.3157 156.09 90.4042 155.749C91.075 155.868 91.7426 156.003 92.4078 156.149C92.5826 156.187 92.7592 156.227 92.9353 156.265C92.9382 156.266 92.9397 156.267 92.9435 156.267C93.3449 156.365 93.7449 156.462 94.1445 156.562C94.9189 156.759 95.6911 156.967 96.4609 157.18C98.9982 157.884 101.516 158.661 104.014 159.493C104.421 159.629 104.827 159.765 105.233 159.904C106.796 160.449 108.772 159.67 109.325 157.968C109.858 156.324 109.169 154.379 107.501 153.8Z" fill="white"/>
<path d="M84.7793 149.016C85.9125 150.779 87.046 152.544 88.1795 154.308C88.3401 154.559 88.5022 154.811 88.6632 155.062C88.9159 155.455 89.4881 155.001 89.2369 154.609C88.1034 152.844 86.9691 151.081 85.8368 149.316C85.6743 149.064 85.5137 148.813 85.3519 148.563C85.1001 148.169 84.5266 148.623 84.7793 149.016Z" fill="#15325C"/>
<path d="M82.5062 152.245C84.0556 153.317 85.6038 154.39 87.1531 155.462C87.3735 155.616 87.5948 155.768 87.8164 155.921C88.192 156.182 88.6362 155.598 88.2565 155.336C86.7069 154.263 85.1575 153.191 83.6096 152.12C83.3892 151.966 83.1676 151.812 82.9463 151.66C82.5696 151.4 82.1262 151.982 82.5062 152.245Z" fill="#15325C"/>
<path d="M81.8361 171.598C83.9577 172.051 86.0776 172.518 88.1347 173.18C88.1179 172.672 88.1035 172.163 88.0879 171.654C86.0182 171.026 83.9064 170.548 81.7903 170.102C81.8047 170.6 81.8202 171.099 81.8361 171.598Z" fill="#AF336A"/>
<path d="M89.8559 148.995C90.1598 151.265 90.3501 153.568 90.8333 155.797C91.2379 155.877 91.6416 155.959 92.0429 156.047C92.1545 156.071 92.2663 156.096 92.3781 156.121C92.1787 155.314 92.0569 154.481 91.9383 153.67C91.7252 152.215 91.5651 150.741 91.3687 149.277C90.8729 149.173 90.3678 149.078 89.8559 148.995Z" fill="#AF336A"/>
<path d="M82.1325 178.809C82.15 179.3 82.1672 179.789 82.1847 180.279C82.7633 180.249 83.3438 180.247 83.9186 180.261C85.4477 180.298 86.9446 180.488 88.447 180.681C88.4402 180.521 88.4343 180.359 88.4287 180.198C88.4155 179.848 88.4047 179.498 88.3924 179.147C86.7489 178.932 85.0905 178.8 83.4343 178.797C83.0491 178.795 82.6045 178.795 82.1325 178.809Z" fill="#AF336A"/>
<path d="M82.6965 186.392C82.6164 186.351 82.5366 186.305 82.4569 186.265C82.478 186.826 82.5007 187.389 82.5221 187.951C84.531 188.938 86.6586 189.708 88.7344 190.495C88.7882 190.516 88.8419 190.537 88.8944 190.558C88.8732 190.026 88.8519 189.494 88.8306 188.962C86.7557 188.178 84.6807 187.39 82.6965 186.392Z" fill="#AF336A"/>
<path d="M105.372 153.275C105.22 155.47 104.958 157.694 104.296 159.768C104.448 159.819 104.599 159.868 104.749 159.921C105.052 160.027 105.369 160.081 105.689 160.09C105.704 160.038 105.722 159.985 105.737 159.936C106.317 157.931 106.598 155.834 106.763 153.74C106.301 153.58 105.835 153.432 105.372 153.275Z" fill="#AF336A"/>
<path d="M87.2596 259.791C88.9789 260.897 90.8471 261.733 92.7266 262.524C92.6991 261.977 92.6719 261.431 92.6443 260.883C92.0921 260.649 91.5427 260.411 91.0002 260.156C89.3336 259.374 87.5215 258.449 86.1667 257.101C86.1991 257.767 86.2323 258.431 86.2651 259.094C86.59 259.342 86.9227 259.575 87.2596 259.791Z" fill="#AF336A"/>
<path d="M91.3593 249.084C89.605 248.967 87.5008 248.717 85.7232 249.269C85.7477 249.772 85.7705 250.273 85.7956 250.773C86.4652 250.518 87.2338 250.466 87.9154 250.438C89.2247 250.383 90.5394 250.489 91.8412 250.583C91.912 250.588 91.9818 250.594 92.0515 250.6C92.0276 250.109 92.004 249.62 91.9796 249.132C91.773 249.115 91.5653 249.099 91.3593 249.084Z" fill="#AF336A"/>
<path d="M82.3222 157.425C82.0237 157.296 81.7236 157.156 81.4252 157.013C81.4263 157.573 81.4334 158.133 81.4447 158.694C82.7056 159.242 84.0113 159.662 85.2005 160.014C86.0372 160.26 86.8829 160.473 87.7327 160.666C87.7285 160.357 87.7234 160.049 87.7206 159.74C87.7186 159.548 87.7192 159.357 87.7175 159.167C87.6472 159.149 87.5746 159.138 87.5044 159.121C85.7401 158.688 83.9928 158.149 82.3222 157.425Z" fill="#AF336A"/>
<path d="M101.207 158.006C101.138 156.519 101.201 155.026 101.259 153.538C101.279 153.002 101.302 152.463 101.322 151.927C100.857 151.787 100.393 151.637 99.9247 151.502C99.8545 153.316 99.7384 155.131 99.7544 156.945C99.7579 157.332 99.7577 157.78 99.7706 158.255C100.264 158.406 100.754 158.57 101.246 158.726C101.23 158.484 101.217 158.242 101.207 158.006Z" fill="#AF336A"/>
<path d="M86.3261 193.915C85.1276 193.478 83.9408 193.002 82.747 192.539C82.7675 193.028 82.7853 193.516 82.8046 194.005C82.8072 194.05 82.8086 194.095 82.81 194.141C84.0481 194.622 85.2836 195.108 86.5334 195.551C87.3884 195.854 88.2749 196.169 89.1778 196.445C89.1566 195.934 89.1367 195.422 89.1152 194.91C88.1585 194.598 87.2235 194.243 86.3261 193.915Z" fill="#AF336A"/>
<path d="M89.7061 208.898C87.5908 208.486 85.5143 207.863 83.472 207.152C83.4962 207.69 83.5175 208.226 83.5417 208.764C85.5643 209.431 87.6159 209.99 89.6857 210.384C89.7495 210.396 89.8186 210.408 89.8853 210.421C89.863 209.921 89.8405 209.419 89.8183 208.919C89.7816 208.911 89.7428 208.906 89.7061 208.898Z" fill="#AF336A"/>
<path d="M87.7929 163.061C87.7894 162.864 87.7859 162.668 87.7823 162.471C86.2448 162.383 84.702 162.349 83.1596 162.371C82.6287 162.377 82.0923 162.391 81.5539 162.407C81.563 162.888 81.5761 163.371 81.5854 163.853C82.5863 163.82 83.5848 163.812 84.5745 163.823C85.657 163.834 86.7351 163.881 87.8119 163.948C87.8075 163.703 87.8017 163.457 87.7958 163.212C87.7947 163.162 87.7944 163.112 87.7929 163.061Z" fill="#AF336A"/>
<path d="M96.1813 156.433C96.4667 155.02 96.5699 153.574 96.6913 152.14C96.7344 151.63 96.7764 151.12 96.823 150.608C96.3552 150.487 95.8863 150.372 95.4178 150.257C95.3648 150.838 95.3152 151.422 95.2669 152.002C95.1455 153.436 95.0423 154.882 94.7569 156.295C94.7274 156.441 94.6938 156.591 94.6573 156.739C95.1166 156.861 95.5761 156.979 96.0328 157.106C96.0878 156.877 96.137 156.65 96.1813 156.433Z" fill="#AF336A"/>
<path d="M88.0321 217.58C86.6917 217.126 85.323 216.748 83.9428 216.414C83.966 216.923 83.9903 217.432 84.0124 217.942C84.3672 218.032 84.7223 218.118 85.0751 218.216C86.883 218.708 88.6835 219.29 90.3823 220.096C90.3652 219.71 90.3456 219.325 90.3282 218.937C90.3205 218.772 90.3142 218.609 90.3062 218.443C89.5588 218.121 88.7946 217.837 88.0321 217.58Z" fill="#AF336A"/>
<path d="M84.3678 224.411C84.3903 224.912 84.414 225.412 84.4374 225.912C85.8695 226.153 87.2902 226.457 88.7266 226.67C89.3051 226.757 90.0115 226.839 90.7475 226.866C90.7258 226.397 90.7041 225.929 90.6826 225.462C89.8734 225.397 89.0639 225.246 88.3323 225.128C87.0081 224.911 85.6928 224.626 84.3678 224.411Z" fill="#AF336A"/>
<path d="M91.3604 238.149C91.3468 237.881 91.3356 237.613 91.322 237.345C90.9465 237.188 90.5709 237.027 90.1985 236.859C88.3438 236.02 86.5263 235.037 84.8705 233.829L84.8763 233.961C84.9034 234.536 84.9316 235.111 84.9587 235.686C86.9641 236.987 89.1687 237.989 91.397 238.896C91.3844 238.647 91.3718 238.398 91.3604 238.149Z" fill="#AF336A"/>
<path d="M83.0429 198.545C83.0671 199.124 83.0928 199.704 83.117 200.283C83.546 200.527 83.9747 200.771 84.4022 201.015C86.1179 201.992 87.8517 202.948 89.5527 203.957C89.5273 203.373 89.5007 202.79 89.4768 202.207C88.826 201.838 88.1726 201.474 87.5271 201.106C86.0309 200.258 84.5278 199.418 83.0429 198.545Z" fill="#AF336A"/>
<path d="M107.501 153.8C102.765 152.154 97.9274 150.721 93.0267 149.66C91.8365 149.403 90.5432 149.115 89.2396 148.965C89.1282 148.711 89.0168 148.457 88.9053 148.203C88.7945 147.951 88.6852 147.7 88.5755 147.448C88.238 146.678 87.2489 146.255 86.4843 146.66C85.7165 147.068 85.3201 147.992 85.6817 148.819C85.7117 148.888 85.7432 148.959 85.7732 149.029C85.5894 149.065 85.4072 149.107 85.2264 149.155C85.1821 149.108 85.1376 149.06 85.0946 149.014C84.5257 148.409 83.532 148.202 82.8643 148.829C82.3029 149.355 82.0776 150.328 82.5489 150.983C82.2726 151.418 82.0817 151.909 81.9518 152.429C81.9445 152.43 81.9369 152.429 81.9295 152.43C81.5397 152.498 81.0982 152.76 80.8789 153.107C80.4444 153.796 80.4791 154.921 81.2415 155.369C81.3853 155.453 81.5291 155.537 81.6717 155.621C81.6263 157.493 81.6902 159.378 81.7176 161.236C81.7931 166.148 81.9372 171.058 82.0994 175.966C82.2991 182.014 82.533 188.06 82.778 194.104C83.0504 200.802 83.3401 207.498 83.641 214.193C83.9369 220.794 84.2421 227.393 84.5553 233.993C84.8321 239.831 85.1137 245.667 85.4017 251.504C85.6155 255.829 85.8305 260.154 86.0495 264.481C86.1551 266.571 86.2156 268.671 86.3695 270.759C86.3756 270.848 86.3782 270.938 86.3832 271.028C86.4708 272.728 88.4243 274.039 89.9898 273.696C91.8116 273.297 92.7434 271.772 92.6483 269.953C92.577 268.543 92.504 267.13 92.4327 265.72C92.241 261.952 92.052 258.183 91.8651 254.413C91.5964 249.007 91.3326 243.601 91.0724 238.194C90.7655 231.798 90.4653 225.404 90.1733 219.007C89.8696 212.365 89.5746 205.723 89.2943 199.079C89.0305 192.83 88.7798 186.578 88.554 180.326C88.3691 175.208 88.1977 170.089 88.0781 164.968C88.066 164.431 88.0543 163.896 88.0422 163.36C88.0422 163.31 88.0407 163.259 88.0392 163.208C88.0359 163.001 88.0318 162.795 88.0287 162.588C88.0136 161.691 88 160.794 87.9925 159.897C87.9872 159.317 87.9846 158.739 87.9843 158.159C88.1143 158.059 88.2335 157.945 88.3159 157.814C88.4674 157.575 88.5585 157.28 88.5848 156.981C89.0337 157.078 89.5131 156.998 89.8889 156.644C90.1372 156.411 90.3157 156.09 90.4042 155.749C91.075 155.868 91.7426 156.003 92.4078 156.149C92.5826 156.187 92.7592 156.227 92.9353 156.265C92.9382 156.266 92.9397 156.267 92.9435 156.267C93.3449 156.365 93.7449 156.462 94.1445 156.562C94.9189 156.759 95.6911 156.967 96.4609 157.18C98.9982 157.884 101.516 158.661 104.014 159.493C104.421 159.629 104.827 159.765 105.233 159.904C106.796 160.449 108.772 159.67 109.325 157.968C109.858 156.324 109.169 154.379 107.501 153.8Z" stroke="#15325C" stroke-width="1.33333" stroke-miterlimit="10"/>
<path d="M81.637 239.98C81.8593 242.297 80.2092 244.391 77.9516 244.657C75.6938 244.923 73.6821 243.26 73.4598 240.942C73.2363 238.625 74.8864 236.531 77.1451 236.264C79.4029 235.999 81.4146 237.662 81.637 239.98Z" fill="#D83F81"/>
<path d="M86.7232 218.687C87.0322 221.892 84.7496 224.79 81.626 225.158C78.5038 225.526 75.721 223.225 75.412 220.021C75.1038 216.815 77.3865 213.917 80.5089 213.549C83.6322 213.18 86.4151 215.481 86.7232 218.687Z" fill="#D83F81"/>
<path d="M109.611 247.441C109.867 250.104 107.973 252.508 105.379 252.814C102.785 253.12 100.475 251.209 100.219 248.548C99.9633 245.886 101.858 243.48 104.452 243.175C107.044 242.87 109.356 244.779 109.611 247.441Z" fill="#D83F81"/>
<path d="M100.506 230.588C100.629 231.876 99.7132 233.039 98.4594 233.187C97.2042 233.335 96.0861 232.411 95.9626 231.124C95.8392 229.836 96.7561 228.672 98.0102 228.525C99.264 228.376 100.382 229.3 100.506 230.588Z" fill="#D83F81"/>
<path d="M99.4762 264.887C99.733 267.561 97.83 269.977 95.2266 270.284C92.6218 270.591 90.302 268.673 90.044 265.999C89.7875 263.327 91.6903 260.91 94.2951 260.603C96.8988 260.297 99.2197 262.215 99.4762 264.887Z" fill="#D83F81"/>
<path d="M78.2656 258.31C78.3644 259.335 77.6356 260.262 76.6365 260.379C75.6378 260.497 74.7486 259.761 74.65 258.737C74.5512 257.712 75.2811 256.785 76.2787 256.667C77.2778 256.55 78.167 257.286 78.2656 258.31Z" fill="#D83F81"/>
<path d="M70.6731 229.747C70.9883 233.021 68.6571 235.979 65.4671 236.355C62.2771 236.731 59.436 234.382 59.1208 231.108C58.807 227.834 61.1368 224.876 64.3267 224.5C67.517 224.124 70.3575 226.472 70.6731 229.747Z" fill="#D83F81"/>
<path d="M101.835 217.902C101.945 219.048 101.128 220.085 100.011 220.216C98.8935 220.348 97.8977 219.525 97.7871 218.378C97.6779 217.232 98.4937 216.195 99.611 216.063C100.729 215.931 101.725 216.755 101.835 217.902Z" fill="#D83F81"/>
<path d="M112.3 262.987C112.457 264.629 111.289 266.111 109.691 266.3C108.091 266.488 106.666 265.311 106.509 263.67C106.351 262.028 107.519 260.544 109.118 260.356C110.718 260.167 112.142 261.346 112.3 262.987Z" fill="#D83F81"/>
<path d="M47.4762 223.799L79.5666 284.564C81.522 288.266 85.8895 289.831 89.7231 288.202L104.39 281.974L104.588 281.891L119.253 275.661C123.088 274.033 125.173 269.73 124.102 265.651L106.599 198.997L47.4762 223.799Z" stroke="#15325C" stroke-width="1.33333" stroke-miterlimit="10"/>
<path d="M103.925 187.149C97.5623 170.803 78.3219 163.527 60.9504 170.896C43.5795 178.268 34.6558 197.494 41.019 213.84C41.3882 214.787 41.8038 215.701 42.257 216.586L44.3717 215.69L104.874 190.019C104.607 189.054 104.295 188.096 103.925 187.149Z" stroke="#15325C" stroke-width="1.33333" stroke-miterlimit="10"/>
<path d="M104.704 190.445L74.9377 203.016L72.0891 204.22L42.3209 216.789L41.3394 226.269L75.1305 211.998L77.9802 210.794L111.771 196.524L104.704 190.445Z" stroke="#15325C" stroke-width="1.33333" stroke-miterlimit="10"/>
<path d="M163.537 262.647C164.181 261.387 164.859 260.143 165.54 258.906C165.66 258.69 165.784 258.474 165.916 258.26C164.491 259.251 163.613 260.889 163.537 262.647Z" fill="#F8E5B8"/>
<path d="M27.252 123.585C27.2266 123.576 27.1951 123.575 27.1562 123.581C27.1684 123.591 27.1829 123.607 27.1926 123.615C27.2132 123.605 27.2314 123.594 27.252 123.585Z" fill="#4B9D9F"/>
<path d="M165.995 49.6852L155.15 45.3236L131.06 38.5566L126.803 79.6162L140.808 85.2494L150.661 89.2116L164.666 94.8447L188.187 61.5321L165.995 49.6852Z" fill="#F2B767"/>
<path d="M141.796 39.8181L132.317 81.8354" stroke="#15325C" stroke-width="1.33333" stroke-miterlimit="10"/>
<path d="M154.109 43.5335L139.767 84.8313" stroke="#15325C" stroke-width="1.33333" stroke-miterlimit="10"/>
<path d="M166.079 48.3479L149.621 88.7935" stroke="#15325C" stroke-width="1.33333" stroke-miterlimit="10"/>
<path d="M178.739 53.4396L158.117 92.2104" stroke="#15325C" stroke-width="1.33333" stroke-miterlimit="10"/>
<path d="M132.223 48.4163C132.223 48.4163 126.078 41.0365 126.909 32.8045C127.739 24.5712 136.507 18.9045 141.812 22.7464C141.812 22.7464 145.23 12.8335 151.48 14.8022C151.48 14.8022 160.893 -0.123642 173.89 8.97798C173.89 8.97798 177.243 8.87378 177.015 2.00011C177.015 2.00011 195.369 15.6904 187.575 29.3186C187.575 29.3186 194.041 34.5499 190.862 38.9971C190.862 38.9971 198.583 47.4648 195.201 56.1695C191.817 64.8754 166.697 83.839 132.223 48.4163Z" fill="white"/>
<path d="M188.476 30.1473C187.953 29.6263 187.576 29.3187 187.576 29.3187C187.699 29.1016 187.798 28.8857 187.908 28.6686C185.267 31.1 181.166 31.9647 173.136 30.7378C162.323 29.0855 154.612 22.8172 152.944 17.5934C152.355 15.7462 152.239 14.739 152.892 12.9228C151.217 14.6596 151.481 14.8022 151.481 14.8022C151.349 14.76 151.536 15.5304 151.407 15.4994C151.507 17.3552 151.755 18.7346 153.018 21.2789C158.953 33.2163 173.919 36.2407 180.11 34.6603C183.914 33.6902 186.806 31.6099 188.476 30.1473Z" fill="#E98CC3"/>
<path d="M190.862 38.9975C191.043 38.7456 191.183 38.4901 191.303 38.2346C187.64 41.5256 179.59 46.5224 164.224 40.8582C149.585 35.4633 144.896 24.2813 143.492 19.2572C142.386 21.0845 141.812 22.7456 141.812 22.7456C141.534 22.5446 141.245 22.3759 140.95 22.2258C141.208 25.1819 142.636 29.2954 146.587 34.5105C155.757 46.6142 171.412 47.949 179.363 46.8015C185.069 45.9778 189.828 42.4573 192.067 40.5295C191.37 39.5557 190.862 38.9975 190.862 38.9975Z" fill="#E98CC3"/>
<path d="M132.027 48.9427C166.499 84.3654 191.818 64.8758 195.2 56.1699C196.011 54.0846 196.181 52.0129 195.975 50.0678C194.883 54.1243 192 58.4983 184.375 60.4285C174.449 62.9418 162.511 64.5942 144.601 52.7895C131.249 43.9881 129.895 31.3994 130.07 25.5603C128.396 27.4955 127.192 30.0001 126.909 32.8036C126.079 41.0369 132.027 48.9427 132.027 48.9427Z" fill="#E98CC3"/>
<path d="M132.223 48.4163C132.223 48.4163 126.078 41.0365 126.909 32.8045C127.739 24.5712 136.507 18.9045 141.812 22.7464C141.812 22.7464 145.23 12.8335 151.48 14.8022C151.48 14.8022 160.893 -0.12364 173.89 8.97798C173.89 8.97798 177.243 8.87378 177.015 2.00011C177.015 2.00011 195.369 15.6904 187.575 29.3186C187.575 29.3186 194.041 34.5499 190.862 38.9971C190.862 38.9971 198.583 47.4648 195.201 56.1695C191.817 64.8754 166.697 83.839 132.223 48.4163Z" stroke="#15325C" stroke-width="1.33333" stroke-miterlimit="10"/>
<path d="M42.9445 368.404C42.9445 376.606 36.538 383.255 28.6335 383.255C20.7303 383.255 14.3237 376.606 14.3237 368.404C14.3237 360.203 20.7303 353.554 28.6335 353.554C36.538 353.554 42.9445 360.203 42.9445 368.404Z" fill="#7F76E7"/>
<path d="M20.0558 367.045C20.0558 367.045 1.10161 374.988 0.0627487 368.224C-0.976115 361.458 11.2284 362.267 11.2284 362.267C11.2284 362.267 2.15602 361.458 3.44593 355.8C4.73704 350.142 13.7605 357.956 13.7605 357.956C13.7605 357.956 5.19251 347.4 10.0282 346.346C14.8627 345.293 21.8741 363.471 20.0558 367.045Z" fill="#7F76E7"/>
<path d="M35.8887 377.827C35.8887 377.827 40.6001 392.645 44.9827 391.399C48.6325 390.362 43.3557 380.588 43.3557 380.588C43.3557 380.588 50.1758 387.156 52.7724 383.074C55.3677 378.99 43.5517 376.008 43.5517 376.008C43.5517 376.008 53.5506 377.893 54.0695 373.044C54.5895 368.194 35.6234 370.217 35.8887 377.827Z" fill="#7F76E7"/>
<path d="M43.3559 368.223C43.3559 376.424 36.9493 383.073 29.0449 383.073C21.1416 383.073 14.7351 376.424 14.7351 368.223C14.7351 360.022 21.1416 353.373 29.0449 353.373C36.9493 353.373 43.3559 360.022 43.3559 368.223Z" stroke="#15325C" stroke-width="1.33333" stroke-miterlimit="10"/>
<path d="M15.2209 364.395L37.1638 355.995" stroke="#15325C" stroke-width="1.33333" stroke-miterlimit="10"/>
<path d="M15.6929 373.559L42.3315 362.707" stroke="#15325C" stroke-width="1.33333" stroke-miterlimit="10"/>
<path d="M20.8975 380.43L43.1966 370.418" stroke="#15325C" stroke-width="1.33333" stroke-miterlimit="10"/>
</svg>
