<svg width="63" height="63" viewBox="0 0 63 63" fill="none" xmlns="http://www.w3.org/2000/svg">
<path d="M62 31.5C62 14.6553 48.3447 1 31.5 1C14.6553 1 1 14.6553 1 31.5C1 48.3447 14.6553 62 31.5 62C48.3447 62 62 48.3447 62 31.5Z" fill="white"/>
<path d="M62 31.5C62 14.6553 48.3447 1 31.5 1C14.6553 1 1 14.6553 1 31.5C1 48.3447 14.6553 62 31.5 62C48.3447 62 62 48.3447 62 31.5Z" stroke="#233239" stroke-miterlimit="10" stroke-linecap="round" stroke-linejoin="round"/>
<path d="M40.995 3.91417C40.995 3.91417 40.1345 1.94699 37.7984 3.05372C35.4628 4.15994 35.586 5.88085 35.586 5.88085C35.586 5.88085 32.2663 8.0938 32.5126 9.56893C32.7583 11.0446 34.2335 13.6259 34.2335 13.6259C34.2335 13.6259 32.5126 16.4536 32.7583 17.8056C33.0041 19.1581 33.7419 22.4772 33.8646 22.8462C33.9877 23.2151 30.9143 24.4444 31.4058 26.0422C31.8979 27.6405 33.1272 29.6076 33.6188 29.7303C34.1103 29.8534 35.3397 30.345 35.3397 30.345C35.3397 30.345 36.0775 34.1562 36.938 35.3855C37.7984 36.6149 38.782 37.1065 38.782 37.1065C38.782 37.1065 40.7492 40.7945 46.5271 41.9008C52.305 43.0075 55.1321 35.6313 55.1321 35.6313C55.1321 35.6313 56.8535 33.4184 57.0993 32.3121C57.3451 31.2054 56.8535 27.1489 56.9762 26.78C57.0993 26.4111 58.2055 24.5671 57.9598 21.9857C57.714 19.4038 56.2389 15.3468 55.0095 14.3638C53.7801 13.3802 52.5508 13.257 52.5508 13.257C52.5508 13.257 49.2316 8.58585 47.7565 7.84803C46.2808 7.11021 45.1746 7.11021 45.1746 7.11021L40.995 3.91417Z" fill="#F2B767"/>
<path d="M40.995 3.91417C40.995 3.91417 40.1345 1.94699 37.7984 3.05372C35.4628 4.15994 35.586 5.88085 35.586 5.88085C35.586 5.88085 32.2663 8.0938 32.5126 9.56893C32.7583 11.0446 34.2335 13.6259 34.2335 13.6259C34.2335 13.6259 32.5126 16.4536 32.7583 17.8056C33.0041 19.1581 33.7419 22.4772 33.8646 22.8462C33.9877 23.2151 30.9143 24.4444 31.4058 26.0422C31.8979 27.6405 33.1272 29.6076 33.6188 29.7303C34.1103 29.8534 35.3397 30.345 35.3397 30.345C35.3397 30.345 36.0775 34.1562 36.938 35.3855C37.7984 36.6149 38.782 37.1065 38.782 37.1065C38.782 37.1065 40.7492 40.7945 46.5271 41.9008C52.305 43.0075 55.1321 35.6313 55.1321 35.6313C55.1321 35.6313 56.8535 33.4184 57.0993 32.3121C57.3451 31.2054 56.8535 27.1489 56.9762 26.78C57.0993 26.4111 58.2055 24.5671 57.9598 21.9857C57.714 19.4038 56.2389 15.3468 55.0095 14.3638C53.7801 13.3802 52.5508 13.257 52.5508 13.257C52.5508 13.257 49.2316 8.58585 47.7565 7.84803C46.2808 7.11021 45.1746 7.11021 45.1746 7.11021L40.995 3.91417Z" stroke="#233239" stroke-miterlimit="10" stroke-linecap="round" stroke-linejoin="round"/>
<path d="M42.6216 8.1604C43.0317 7.74213 43.3981 7.3086 43.6993 6.86489" stroke="#233239" stroke-miterlimit="10" stroke-linecap="round" stroke-linejoin="round"/>
<path d="M35.0942 13.1343C35.0942 13.1343 38.6332 11.5385 41.3835 9.28489" stroke="#233239" stroke-miterlimit="10" stroke-linecap="round" stroke-linejoin="round"/>
<path d="M35.3398 21.9856C35.3398 21.9856 48.3708 16.5766 51.1984 14.1179" stroke="#233239" stroke-miterlimit="10" stroke-linecap="round" stroke-linejoin="round"/>
<path d="M49.6182 26.5903C51.7767 26.2789 53.8823 26.1268 55.624 26.2881" stroke="#233239" stroke-miterlimit="10" stroke-linecap="round" stroke-linejoin="round"/>
<path d="M37.061 29.6074C37.061 29.6074 42.5611 27.7929 48.1701 26.821" stroke="#233239" stroke-miterlimit="10" stroke-linecap="round" stroke-linejoin="round"/>
<path d="M48.3125 36.0576C50.7575 35.9192 53.2778 35.7671 55.132 35.6312" stroke="#233239" stroke-miterlimit="10" stroke-linecap="round" stroke-linejoin="round"/>
<path d="M40.1343 36.4917C40.1343 36.4917 42.9695 36.3518 46.3803 36.165" stroke="#233239" stroke-miterlimit="10" stroke-linecap="round" stroke-linejoin="round"/>
<path d="M25.688 23.7726L24.1401 25.0248C24.1401 25.0248 28.2689 28.6575 29.3751 28.6575C30.4808 28.6575 31.587 27.5512 31.4949 26.8139C31.4023 26.0766 27.6237 22.1133 27.6237 22.1133L25.688 23.7726Z" fill="white"/>
<path d="M25.0423 13.0811C25.0423 13.2338 24.9187 13.3574 24.766 13.3574C24.6134 13.3574 24.4897 13.2338 24.4897 13.0811C24.4897 12.9285 24.6134 12.8048 24.766 12.8048C24.9187 12.8048 25.0423 12.9285 25.0423 13.0811Z" fill="white"/>
<path d="M17.3181 18.7187C17.3181 19.1003 17.0087 19.4097 16.6271 19.4097C16.2449 19.4097 15.9355 19.1003 15.9355 18.7187C15.9355 18.337 16.2449 18.0277 16.6271 18.0277C17.0087 18.0277 17.3181 18.337 17.3181 18.7187Z" fill="#233239"/>
<path d="M20.4517 17.8432C20.4517 18.0468 20.2868 18.2122 20.0828 18.2122C19.8792 18.2122 19.7144 18.0468 19.7144 17.8432C19.7144 17.6397 19.8792 17.4743 20.0828 17.4743C20.2868 17.4743 20.4517 17.6397 20.4517 17.8432Z" fill="#233239"/>
<path d="M19.9905 22.4979C19.9905 22.7269 19.8048 22.9126 19.5758 22.9126C19.3469 22.9126 19.1611 22.7269 19.1611 22.4979C19.1611 22.2689 19.3469 22.0832 19.5758 22.0832C19.8048 22.0832 19.9905 22.2689 19.9905 22.4979Z" fill="#233239"/>
<path d="M23.6777 22.0369C23.6777 22.3168 23.4508 22.5437 23.1704 22.5437C22.891 22.5437 22.6636 22.3168 22.6636 22.0369C22.6636 21.757 22.891 21.5296 23.1704 21.5296C23.4508 21.5296 23.6777 21.757 23.6777 22.0369Z" fill="#233239"/>
<path d="M23.6775 20.3317C23.6775 20.637 23.4297 20.8848 23.1244 20.8848C22.8191 20.8848 22.5713 20.637 22.5713 20.3317C22.5713 20.0263 22.8191 19.7785 23.1244 19.7785C23.4297 19.7785 23.6775 20.0263 23.6775 20.3317Z" fill="#233239"/>
<path d="M22.4792 16.6911C22.4792 17.0727 22.1698 17.3821 21.7882 17.3821C21.4061 17.3821 21.0967 17.0727 21.0967 16.6911C21.0967 16.3094 21.4061 16.0001 21.7882 16.0001C22.1698 16.0001 22.4792 16.3094 22.4792 16.6911Z" fill="#233239"/>
<path d="M26.2581 19.1337C26.2581 19.439 26.0108 19.6863 25.7055 19.6863C25.3996 19.6863 25.1523 19.439 25.1523 19.1337C25.1523 18.8279 25.3996 18.5806 25.7055 18.5806C26.0108 18.5806 26.2581 18.8279 26.2581 19.1337Z" fill="#233239"/>
<path d="M26.4423 22.8204C26.4423 22.973 26.3186 23.0967 26.1659 23.0967C26.0133 23.0967 25.8896 22.973 25.8896 22.8204C25.8896 22.6677 26.0133 22.5441 26.1659 22.5441C26.3186 22.5441 26.4423 22.6677 26.4423 22.8204Z" stroke="#233239" stroke-width="1.33333" stroke-miterlimit="10" stroke-linecap="round" stroke-linejoin="round"/>
<path d="M23.4934 24.5714C23.4934 24.8772 23.2456 25.1245 22.9403 25.1245C22.635 25.1245 22.3872 24.8772 22.3872 24.5714C22.3872 24.2661 22.635 24.0188 22.9403 24.0188C23.2456 24.0188 23.4934 24.2661 23.4934 24.5714Z" fill="#233239"/>
<path d="M16.2121 22.037C16.2121 22.2151 16.0676 22.3596 15.8895 22.3596C15.7114 22.3596 15.5669 22.2151 15.5669 22.037C15.5669 21.8589 15.7114 21.7144 15.8895 21.7144C16.0676 21.7144 16.2121 21.8589 16.2121 22.037Z" fill="#233239"/>
<path d="M17.963 21.1613C17.963 21.4157 17.757 21.6223 17.502 21.6223C17.2476 21.6223 17.041 21.4157 17.041 21.1613C17.041 20.9069 17.2476 20.7003 17.502 20.7003C17.757 20.7003 17.963 20.9069 17.963 21.1613Z" fill="#233239"/>
<path d="M14.7373 19.3179C14.7373 19.5214 14.5724 19.6868 14.3684 19.6868C14.1649 19.6868 14 19.5214 14 19.3179C14 19.1143 14.1649 18.9495 14.3684 18.9495C14.5724 18.9495 14.7373 19.1143 14.7373 19.3179Z" fill="#233239"/>
<path d="M13.5186 31.8929C13.5186 31.8929 11.7977 31.524 8.4785 32.7533C5.15932 33.9827 5.52772 40.1295 7.74068 41.9735C9.95363 43.8176 12.7813 44.8012 12.7813 44.8012C12.7813 44.8012 12.1666 47.2599 13.5186 48.243C14.8711 49.2266 18.5592 50.4559 18.5592 50.4559C18.5592 50.4559 18.3129 52.6689 20.0343 54.3898C21.7552 56.1112 24.7055 56.1112 25.3202 55.6192C25.9348 55.1276 26.7958 54.5129 26.7958 54.5129C26.7958 54.5129 30.6065 57.4632 32.0816 56.9717C33.5568 56.4796 35.1551 55.7423 35.1551 55.7423C35.1551 55.7423 38.5974 57.8321 41.425 57.5864C44.2521 57.3406 47.4487 56.357 47.5713 54.2672C47.6945 52.1774 45.9735 48.9808 45.6046 48.3661C45.2357 47.7514 44.621 46.0305 44.621 46.0305C44.621 46.0305 45.1126 45.1701 43.8832 43.6945C42.6539 42.2193 39.3347 39.3922 39.0889 38.9001C38.8431 38.4086 38.72 35.9499 37.9827 34.8431C37.2449 33.7369 29.5003 29.9262 27.2873 29.8031C25.0744 29.6799 23.1077 30.7867 23.1077 30.7867C23.1077 30.7867 22.6157 30.5409 19.1739 29.9262C15.7315 29.3115 13.8875 30.172 13.5186 31.8929Z" fill="#F2B767"/>
<path d="M13.5186 31.8929C13.5186 31.8929 11.7977 31.524 8.4785 32.7533C5.15932 33.9827 5.52772 40.1295 7.74068 41.9735C9.95363 43.8176 12.7813 44.8012 12.7813 44.8012C12.7813 44.8012 12.1666 47.2599 13.5186 48.243C14.8711 49.2266 18.5592 50.4559 18.5592 50.4559C18.5592 50.4559 18.3129 52.6689 20.0343 54.3898C21.7552 56.1112 24.7055 56.1112 25.3202 55.6192C25.9348 55.1276 26.7958 54.5129 26.7958 54.5129C26.7958 54.5129 30.6065 57.4632 32.0816 56.9717C33.5568 56.4796 35.1551 55.7423 35.1551 55.7423C35.1551 55.7423 38.5974 57.8321 41.425 57.5864C44.2521 57.3406 47.4487 56.357 47.5713 54.2672C47.6945 52.1774 45.9735 48.9808 45.6046 48.3661C45.2357 47.7514 44.621 46.0305 44.621 46.0305C44.621 46.0305 45.1126 45.1701 43.8832 43.6945C42.6539 42.2193 39.3347 39.3922 39.0889 38.9001C38.8431 38.4086 38.72 35.9499 37.9827 34.8431C37.2449 33.7369 29.5003 29.9262 27.2873 29.8031C25.0744 29.6799 23.1077 30.7867 23.1077 30.7867C23.1077 30.7867 22.6157 30.5409 19.1738 29.9262C15.7315 29.3115 13.8875 30.172 13.5186 31.8929Z" stroke="#233239" stroke-miterlimit="10" stroke-linecap="round" stroke-linejoin="round"/>
<path d="M13.5199 38.9465C13.4293 40.4308 13.2777 42.025 13.0269 43.4487" stroke="#233239" stroke-miterlimit="10" stroke-linecap="round" stroke-linejoin="round"/>
<path d="M13.6416 33.6138C13.6416 33.6138 13.6813 35.436 13.5806 37.7756" stroke="#233239" stroke-miterlimit="10" stroke-linecap="round" stroke-linejoin="round"/>
<path d="M21.9826 42.6339C20.1676 47.8821 18.5586 50.4563 18.5586 50.4563" stroke="#233239" stroke-miterlimit="10" stroke-linecap="round" stroke-linejoin="round"/>
<path d="M23.3532 32.1387C23.3532 32.1387 24.3368 35.4579 22.3696 41.4816" stroke="#233239" stroke-miterlimit="10" stroke-linecap="round" stroke-linejoin="round"/>
<path d="M36.207 42.5097C34.367 45.6971 31.1501 50.8954 28.1479 53.8981" stroke="#233239" stroke-miterlimit="10" stroke-linecap="round" stroke-linejoin="round"/>
<path d="M37.7367 39.7607C37.7367 39.7607 37.437 40.3311 36.918 41.2593" stroke="#233239" stroke-miterlimit="10" stroke-linecap="round" stroke-linejoin="round"/>
<path d="M41.8002 49.9996C39.946 52.0549 37.0889 54.969 35.1553 55.7424" stroke="#233239" stroke-miterlimit="10" stroke-linecap="round" stroke-linejoin="round"/>
<path d="M43.6378 47.8744C43.6378 47.8744 43.2282 48.3766 42.5708 49.1312" stroke="#233239" stroke-miterlimit="10" stroke-linecap="round" stroke-linejoin="round"/>
</svg>
