<svg width="63" height="63" viewBox="0 0 63 63" fill="none" xmlns="http://www.w3.org/2000/svg">
<path d="M61.9999 31.5C61.9999 14.6553 48.3447 1.00007 31.5 1.00007C14.6553 1.00007 1 14.6553 1 31.5C1 48.3447 14.6553 62 31.5 62C48.3447 62 61.9999 48.3447 61.9999 31.5Z" fill="white"/>
<path d="M61.9999 31.5C61.9999 14.6553 48.3447 1.00007 31.5 1.00007C14.6553 1.00007 1 14.6553 1 31.5C1 48.3447 14.6553 62 31.5 62C48.3447 62 61.9999 48.3447 61.9999 31.5Z" stroke="#233239" stroke-miterlimit="10" stroke-linecap="round" stroke-linejoin="round"/>
<path d="M37.3685 32.6132C37.3685 32.6132 34.7495 33.7586 34.0402 37.0869C33.3308 40.4152 34.695 47.3996 38.7871 48.8727C42.8793 50.3458 47.6807 50.0186 50.9546 45.9265C54.2285 41.8344 54.1191 41.6156 54.8828 39.4881C55.6471 37.3601 53.5191 32.0127 50.6274 30.2124C47.7356 28.4117 42.9881 28.03 42.6065 28.8482C42.2244 29.6665 42.2793 30.103 41.6789 30.4852C41.079 30.8668 38.3506 32.0127 37.3685 32.6132Z" fill="white"/>
<path d="M37.3685 32.6132C37.3685 32.6132 34.7495 33.7586 34.0402 37.0869C33.3308 40.4152 34.695 47.3996 38.7871 48.8727C42.8793 50.3458 47.6807 50.0186 50.9546 45.9265C54.2285 41.8344 54.1191 41.6156 54.8828 39.4881C55.6471 37.3601 53.5191 32.0127 50.6274 30.2124C47.7356 28.4117 42.9881 28.03 42.6065 28.8482C42.2244 29.6665 42.2793 30.103 41.6789 30.4852C41.079 30.8668 38.3506 32.0127 37.3685 32.6132Z" stroke="#233239" stroke-miterlimit="10" stroke-linecap="round" stroke-linejoin="round"/>
<path d="M42.8789 33.9224C42.8789 33.9224 41.2419 33.5947 40.3143 34.9589C39.3872 36.3231 39.1684 38.0689 39.7688 38.8876C40.3693 39.7059 39.9871 40.7424 40.9692 41.6155C41.9513 42.4887 44.7886 43.3069 46.6438 41.8883C48.4985 40.4696 50.4087 35.9409 47.8986 34.3589C45.389 32.7765 43.3155 31.5216 42.8789 33.9224Z" fill="#FEFB53"/>
<path d="M42.8789 33.9224C42.8789 33.9224 41.2419 33.5947 40.3143 34.9589C39.3872 36.3231 39.1684 38.0689 39.7688 38.8876C40.3693 39.7059 39.9871 40.7424 40.9692 41.6155C41.9513 42.4887 44.7886 43.3069 46.6438 41.8883C48.4985 40.4696 50.4087 35.9409 47.8986 34.3589C45.389 32.7765 43.3155 31.5216 42.8789 33.9224Z" stroke="#233239" stroke-miterlimit="10" stroke-linecap="round" stroke-linejoin="round"/>
<path d="M36.5499 36.3777C36.5499 36.3777 32.4033 34.6319 29.4571 34.8502C26.5104 35.0685 23.2366 36.3777 21.8179 38.9423C20.3998 41.5069 20.0176 43.962 20.6725 45.8717C21.3269 47.7814 22.5822 48.1086 22.8549 49.9094C23.1277 51.7097 26.0739 54.8197 30.3843 54.6014C34.6947 54.3831 38.3507 52.8011 39.4966 47.3993C40.642 41.9974 39.4416 38.3963 36.5499 36.3777Z" fill="white"/>
<path d="M36.5499 36.3777C36.5499 36.3777 32.4033 34.6319 29.4571 34.8502C26.5104 35.0685 23.2366 36.3777 21.8179 38.9423C20.3998 41.5069 20.0176 43.962 20.6725 45.8717C21.3269 47.7814 22.5822 48.1086 22.8549 49.9094C23.1277 51.7097 26.0739 54.8197 30.3843 54.6014C34.6947 54.3831 38.3507 52.8011 39.4966 47.3993C40.642 41.9974 39.4416 38.3963 36.5499 36.3777Z" stroke="#233239" stroke-miterlimit="10" stroke-linecap="round" stroke-linejoin="round"/>
<path d="M29.8394 40.7427C29.8394 40.7427 27.657 40.961 26.8388 42.7618C26.0201 44.5621 26.5111 47.1266 27.8209 48.1087C29.1301 49.0908 31.8036 49.8001 32.7312 49.2002C33.6588 48.5997 35.3502 47.3994 35.514 45.5447C35.6779 43.6894 35.0775 41.7797 34.0409 41.2337C33.0039 40.6883 30.7126 40.3611 29.8394 40.7427Z" fill="#FEFB53"/>
<path d="M29.8394 40.7427C29.8394 40.7427 27.657 40.961 26.8388 42.7618C26.0201 44.5621 26.5111 47.1266 27.8209 48.1087C29.1301 49.0908 31.8036 49.8001 32.7312 49.2002C33.6588 48.5997 35.3502 47.3994 35.514 45.5447C35.6779 43.6894 35.0775 41.7797 34.0409 41.2337C33.0039 40.6883 30.7126 40.3611 29.8394 40.7427Z" stroke="#233239" stroke-miterlimit="10" stroke-linecap="round" stroke-linejoin="round"/>
<path d="M18.1431 44.5736C17.13 44.5736 16.1484 44.0332 15.6304 43.0807C9.60268 32.0006 7.27524 23.0145 7.17906 22.6375C6.78929 21.1084 7.71284 19.5523 9.24242 19.1626C10.7725 18.7733 12.3265 19.6964 12.7168 21.2254C12.7565 21.3786 15.0076 29.977 20.6506 40.3502C21.4047 41.7363 20.8923 43.4715 19.5063 44.2256C19.0722 44.4617 18.6046 44.5736 18.1431 44.5736Z" fill="#FF958E"/>
<path d="M18.1431 44.5736C17.13 44.5736 16.1484 44.0332 15.6304 43.0807C9.60268 32.0006 7.27524 23.0145 7.17906 22.6375C6.78929 21.1084 7.71284 19.5523 9.24242 19.1626C10.7725 18.7733 12.3265 19.6964 12.7168 21.2254C12.7565 21.3786 15.0076 29.977 20.6506 40.3502C21.4047 41.7363 20.8923 43.4715 19.5063 44.2256C19.0722 44.4617 18.6046 44.5736 18.1431 44.5736Z" stroke="#233239" stroke-miterlimit="10" stroke-linecap="round" stroke-linejoin="round"/>
<path d="M15.9699 31.688L10.9019 27.8986C10.9019 27.8986 13.0476 28.6288 13.961 29.2684C14.8739 29.907 15.6046 30.7751 15.6046 30.7751" stroke="#233239" stroke-width="0.8" stroke-miterlimit="10" stroke-linecap="round" stroke-linejoin="round"/>
<path d="M18.0246 37.5325L12.9565 33.7426C12.9565 33.7426 15.1023 34.4733 16.0157 35.1124C16.9291 35.7515 17.6593 36.6191 17.6593 36.6191" stroke="#233239" stroke-width="0.8" stroke-miterlimit="10" stroke-linecap="round" stroke-linejoin="round"/>
<path d="M19.8054 42.6461L14.7373 38.8563C14.7373 38.8563 16.8831 39.587 17.7965 40.2261C18.7098 40.8652 19.44 41.7327 19.44 41.7327" stroke="#233239" stroke-width="0.8" stroke-miterlimit="10" stroke-linecap="round" stroke-linejoin="round"/>
<path d="M12.7741 24.3367L7.70605 20.5473C7.70605 20.5473 9.85184 21.2775 10.7652 21.9171C11.6781 22.5557 12.4088 23.4238 12.4088 23.4238" stroke="#233239" stroke-width="0.8" stroke-miterlimit="10" stroke-linecap="round" stroke-linejoin="round"/>
<path d="M22.6255 37.2598C21.6124 37.2598 20.6308 36.7199 20.1128 35.7668C14.0851 24.6868 11.7577 15.7007 11.6615 15.3236C11.2717 13.7945 12.1953 12.2385 13.7248 11.8487C15.2549 11.4595 16.8089 12.3825 17.1992 13.9116C17.2389 14.0647 19.49 22.6631 25.1331 33.0364C25.8872 34.4225 25.3748 36.1576 23.9882 36.9117C23.5546 37.1478 23.087 37.2598 22.6255 37.2598Z" fill="#FF958E"/>
<path d="M22.6255 37.2598C21.6124 37.2598 20.6308 36.7199 20.1128 35.7668C14.0851 24.6868 11.7577 15.7007 11.6615 15.3236C11.2717 13.7945 12.1953 12.2385 13.7248 11.8487C15.2549 11.4595 16.8089 12.3825 17.1992 13.9116C17.2389 14.0647 19.49 22.6631 25.1331 33.0364C25.8872 34.4225 25.3748 36.1576 23.9882 36.9117C23.5546 37.1478 23.087 37.2598 22.6255 37.2598Z" stroke="#233239" stroke-miterlimit="10" stroke-linecap="round" stroke-linejoin="round"/>
<path d="M20.4523 24.3743L15.3843 20.5844C15.3843 20.5844 17.5301 21.3151 18.4434 21.9542C19.3568 22.5933 20.087 23.4609 20.087 23.4609" stroke="#233239" stroke-width="0.8" stroke-miterlimit="10" stroke-linecap="round" stroke-linejoin="round"/>
<path d="M22.507 30.2183L17.439 26.4284C17.439 26.4284 19.5847 27.1591 20.4981 27.7982C21.4115 28.4373 22.1417 29.3049 22.1417 29.3049" stroke="#233239" stroke-width="0.8" stroke-miterlimit="10" stroke-linecap="round" stroke-linejoin="round"/>
<path d="M24.2878 35.332L19.2197 31.5422C19.2197 31.5422 21.3655 32.2729 22.2789 32.912C23.1923 33.5511 23.9224 34.4192 23.9224 34.4192" stroke="#233239" stroke-width="0.8" stroke-miterlimit="10" stroke-linecap="round" stroke-linejoin="round"/>
<path d="M17.2565 17.0232L12.1885 13.2333C12.1885 13.2333 14.3343 13.964 15.2476 14.6031C16.1605 15.2422 16.8912 16.1098 16.8912 16.1098" stroke="#233239" stroke-width="0.8" stroke-miterlimit="10" stroke-linecap="round" stroke-linejoin="round"/>
<path d="M32.9426 25.567C32.9426 25.567 35.2639 29.9731 35.3591 30.5893C35.4537 31.2055 36.7329 30.7786 36.7329 30.7786C36.7329 30.7786 47.2985 26.5145 49.2886 24.9513C51.2787 23.3877 55.1637 22.5348 55.0217 21.3976C54.8792 20.2603 51.326 13.3905 49.8096 11.0686C48.2933 8.74727 46.7775 4.62515 45.6402 4.19874C44.5034 3.77182 42.3709 5.47796 39.7651 6.89916C37.1593 8.32035 29.9104 10.2158 29.4361 12.2059C28.9624 14.1959 32.9426 25.567 32.9426 25.567Z" fill="white"/>
<path d="M32.9426 25.567C32.9426 25.567 35.2639 29.9731 35.3591 30.5893C35.4537 31.2055 36.7329 30.7786 36.7329 30.7786C36.7329 30.7786 47.2985 26.5145 49.2886 24.9513C51.2787 23.3877 55.1637 22.5348 55.0217 21.3976C54.8792 20.2603 51.326 13.3905 49.8096 11.0686C48.2933 8.74727 46.7775 4.62515 45.6402 4.19874C44.5034 3.77182 42.3709 5.47797 39.7651 6.89916C37.1593 8.32035 29.9104 10.2158 29.4361 12.2059C28.9624 14.1959 32.9426 25.567 32.9426 25.567Z" stroke="#233239" stroke-miterlimit="10" stroke-linecap="round" stroke-linejoin="round"/>
<path d="M23.1871 5.42698C23.1871 5.42698 21.457 5.11252 21.457 7.07868C21.457 9.04434 20.9848 25.3237 21.6926 26.2676C22.4009 27.211 23.7376 27.2899 24.4454 27.211C25.1532 27.1321 36.8708 26.5032 38.837 26.6604C40.8032 26.8177 41.0388 26.4248 41.0388 25.0087C41.0388 23.5936 41.9043 6.60648 41.511 6.13478C41.1176 5.66257 40.8815 5.34811 40.0954 5.34811C39.3092 5.34811 31.4446 5.42698 29.0067 5.42698H23.1871Z" fill="white"/>
<path d="M23.1871 5.42698C23.1871 5.42698 21.457 5.11252 21.457 7.07868C21.457 9.04434 20.9848 25.3237 21.6926 26.2676C22.4009 27.211 23.7376 27.2899 24.4454 27.211C25.1532 27.1321 36.8708 26.5032 38.837 26.6604C40.8032 26.8177 41.0388 26.4248 41.0388 25.0087C41.0388 23.5936 41.9043 6.60648 41.511 6.13478C41.1176 5.66257 40.8815 5.34811 40.0954 5.34811C39.3092 5.34811 31.4446 5.42698 29.0067 5.42698H23.1871Z" stroke="#233239" stroke-miterlimit="10" stroke-linecap="round" stroke-linejoin="round"/>
<path d="M24.1432 7.50042C24.1432 7.74823 23.9422 7.94922 23.6944 7.94922C23.4466 7.94922 23.2456 7.74823 23.2456 7.50042C23.2456 7.25261 23.4466 7.05162 23.6944 7.05162C23.9422 7.05162 24.1432 7.25261 24.1432 7.50042Z" stroke="#233239" stroke-width="0.5" stroke-miterlimit="10" stroke-linecap="round" stroke-linejoin="round"/>
<path d="M27.6428 9.16052C27.6428 9.48262 27.3818 9.74365 27.0597 9.74365C26.7371 9.74365 26.4761 9.48262 26.4761 9.16052C26.4761 8.83842 26.7371 8.57739 27.0597 8.57739C27.3818 8.57739 27.6428 8.83842 27.6428 9.16052Z" stroke="#233239" stroke-width="0.5" stroke-miterlimit="10" stroke-linecap="round" stroke-linejoin="round"/>
<path d="M24.9509 11.4486C24.9509 11.6471 24.7906 11.8074 24.5922 11.8074C24.3937 11.8074 24.2329 11.6471 24.2329 11.4486C24.2329 11.2502 24.3937 11.0894 24.5922 11.0894C24.7906 11.0894 24.9509 11.2502 24.9509 11.4486Z" stroke="#233239" stroke-width="0.5" stroke-miterlimit="10" stroke-linecap="round" stroke-linejoin="round"/>
<path d="M27.3737 12.6154C27.3737 12.8138 27.2129 12.9746 27.0145 12.9746C26.8166 12.9746 26.6558 12.8138 26.6558 12.6154C26.6558 12.4169 26.8166 12.2561 27.0145 12.2561C27.2129 12.2561 27.3737 12.4169 27.3737 12.6154Z" stroke="#233239" stroke-width="0.5" stroke-miterlimit="10" stroke-linecap="round" stroke-linejoin="round"/>
<path d="M37.1551 9.07063C37.1551 9.34337 36.9343 9.56421 36.6615 9.56421C36.3893 9.56421 36.168 9.34337 36.168 9.07063C36.168 8.79789 36.3893 8.57706 36.6615 8.57706C36.9343 8.57706 37.1551 8.79789 37.1551 9.07063Z" stroke="#233239" stroke-width="0.5" stroke-miterlimit="10" stroke-linecap="round" stroke-linejoin="round"/>
<path d="M51.4234 21.0508C51.4234 21.3479 51.1822 21.5891 50.885 21.5891C50.5874 21.5891 50.3467 21.3479 50.3467 21.0508C50.3467 20.7536 50.5874 20.5124 50.885 20.5124C51.1822 20.5124 51.4234 20.7536 51.4234 21.0508Z" stroke="#233239" stroke-width="0.7" stroke-miterlimit="10" stroke-linecap="round" stroke-linejoin="round"/>
<path d="M49.1796 18.2242C49.1796 18.447 48.999 18.6277 48.7761 18.6277C48.5527 18.6277 48.3721 18.447 48.3721 18.2242C48.3721 18.0013 48.5527 17.8202 48.7761 17.8202C48.999 17.8202 49.1796 18.0013 49.1796 18.2242Z" stroke="#233239" stroke-width="0.7" stroke-miterlimit="10" stroke-linecap="round" stroke-linejoin="round"/>
<path d="M45.9497 13.7371C45.9497 13.9106 45.8088 14.051 45.6352 14.051C45.4622 14.051 45.3213 13.9106 45.3213 13.7371C45.3213 13.5636 45.4622 13.4231 45.6352 13.4231C45.8088 13.4231 45.9497 13.5636 45.9497 13.7371Z" stroke="#233239" stroke-width="0.7" stroke-miterlimit="10" stroke-linecap="round" stroke-linejoin="round"/>
<path d="M48.4615 14.5895C48.4615 14.8373 48.2605 15.0383 48.0127 15.0383C47.7649 15.0383 47.5645 14.8373 47.5645 14.5895C47.5645 14.3417 47.7649 14.1407 48.0127 14.1407C48.2605 14.1407 48.4615 14.3417 48.4615 14.5895Z" stroke="#233239" stroke-width="0.7" stroke-miterlimit="10" stroke-linecap="round" stroke-linejoin="round"/>
</svg>
