<svg width="63" height="63" viewBox="0 0 63 63" fill="none" xmlns="http://www.w3.org/2000/svg">
<path d="M62 31.5C62 14.6553 48.3447 1 31.5 1C14.6553 1 1 14.6553 1 31.5C1 48.3447 14.6553 62 31.5 62C48.3447 62 62 48.3447 62 31.5Z" fill="white"/>
<path d="M62 31.5C62 14.6553 48.3447 1 31.5 1C14.6553 1 1 14.6553 1 31.5C1 48.3447 14.6553 62 31.5 62C48.3447 62 62 48.3447 62 31.5Z" stroke="black" stroke-miterlimit="10" stroke-linecap="round" stroke-linejoin="round"/>
<path d="M19.5686 22.2556C19.5686 22.2556 18.1367 21.8261 15.3447 20.1795C12.5527 18.5329 8.32877 18.6047 7.75581 20.0366C7.18337 21.4684 8.04229 22.6851 7.46985 23.401C6.89689 24.117 5.60799 24.2599 5.75149 24.9764C5.89447 25.6918 7.25511 26.05 7.03987 26.4795C6.82514 26.909 5.96622 27.7679 6.25269 28.1261C6.53917 28.4844 7.46985 29.1285 7.46985 29.1285C7.46985 29.1285 8.40052 28.4843 6.68216 30.131C4.9638 31.7771 5.46501 32.7083 5.46501 32.7083C5.46501 32.7083 6.03796 33.4954 5.82272 34.1396C5.60799 34.7843 6.46743 35.2138 6.46743 35.2138C6.46743 35.2138 7.32635 36.001 7.25511 36.9316C7.18337 37.8623 7.97055 39.0795 7.97055 39.0795C7.97055 39.0795 11.1925 40.0819 11.1208 40.5831C11.049 41.0838 10.4048 42.015 10.5478 42.5157C10.6913 43.0169 12.1232 42.8739 12.5527 42.8739C12.9821 42.8739 13.4116 43.3034 13.3404 44.6635C13.2686 46.0236 14.1993 46.3101 14.1993 46.3101C14.1993 46.3101 16.8478 47.2413 16.9196 47.5273C16.9913 47.8137 15.6312 48.3867 17.7785 48.3149C19.9263 48.2432 21 48.5297 20.0693 47.742C19.1386 46.9548 18.1367 45.5942 17.2055 45.4512C16.2754 45.3082 14.7005 44.0193 15.9171 43.8046C17.1343 43.5898 18.3514 44.1623 18.3514 44.1623L18.9956 45.0217L21 45.5229C21 45.5229 19.1386 46.5966 20.714 47.0978C22.2894 47.599 22.7183 46.9548 22.7901 47.5273C22.8618 48.1002 23.1478 49.3174 23.1478 49.3174C23.1478 49.3174 22.8618 48.9591 23.9355 49.3174C25.0091 49.6751 24.7949 41.6567 24.1502 40.8696C23.506 40.0819 21.7876 39.0077 21.7876 39.0077L22.5041 36.7169L22.0741 35.0703C22.0741 35.0703 15.3447 33.066 19.5686 22.2556Z" fill="#75E6A4"/>
<path d="M27.4432 16.3852C27.4432 16.3852 27.0132 14.5239 27.6579 13.5214C28.3016 12.519 30.8794 12.8772 31.7384 13.092C32.5978 13.3067 33.6714 14.0227 33.6714 12.519C33.6714 11.0159 33.3132 10.3 32.7408 9.94174C32.1678 9.58402 32.9555 8.79633 32.0966 8.43862C31.2371 8.08039 31.4524 8.29563 30.8794 8.08039C30.3065 7.86566 30.02 6.72026 29.1611 6.72026C28.3016 6.72026 28.3016 7.29321 27.8009 7.00673C27.2997 6.72026 26.7985 6.00431 26.2256 6.1473C25.6531 6.29079 24.8659 7.07797 24.8659 7.07797C24.8659 7.07797 24.3647 6.72026 23.7918 6.86375C23.2188 7.00673 23.1476 7.50794 22.4316 7.50794C21.7157 7.50794 20.7133 6.50552 20.2843 6.792C19.8543 7.07797 19.2102 7.65093 19.1384 7.93741C19.0667 8.22388 18.0642 7.79442 17.6353 8.36687C17.2053 8.93983 16.9906 9.58402 16.7046 9.72701C16.4181 9.8705 15.7022 10.0135 15.7022 10.2282C15.7022 10.4429 15.8452 11.0871 15.7022 11.3024C15.5592 11.5171 15.1292 11.8036 15.1292 11.8036C15.1292 11.8036 15.3445 12.7338 15.0575 13.0202C14.7715 13.3067 13.4826 13.9509 13.4826 13.9509C13.4826 13.9509 14.1991 14.6668 13.8408 14.9533C13.4826 15.2398 12.9814 15.1681 12.8384 15.4545C12.6954 15.7405 13.0532 16.5999 13.0532 16.5999C13.0532 16.5999 14.4138 17.3159 15.1292 17.7453C15.8452 18.1748 16.4181 18.676 18.566 17.3876C20.7133 16.0987 22.8611 16.027 23.6488 16.457C24.4365 16.8864 25.5819 18.533 25.5819 18.533C25.5819 18.533 26.7985 19.0342 27.4432 16.3852Z" fill="#75E6A4"/>
<path d="M47.0204 35.7814C47.0204 35.7814 48.8471 36.3411 49.3921 37.4006C49.937 38.46 48.3372 40.5121 47.721 41.1482C47.1053 41.7847 45.9482 42.3557 47.2493 43.1082C48.551 43.8608 49.3498 43.9097 49.9467 43.5927C50.5431 43.2762 50.8306 44.3518 51.5704 43.7875C52.3103 43.2232 52.0167 43.3011 52.4894 42.9128C52.9626 42.5246 54.0973 42.8503 54.5273 42.1063C54.9573 41.3629 54.4617 41.0759 54.9603 40.7854C55.459 40.4948 56.3296 40.4195 56.4919 39.8522C56.6553 39.2848 56.3673 38.2086 56.3673 38.2086C56.3673 38.2086 56.9285 37.9542 57.0909 37.3863C57.2537 36.8189 56.8558 36.506 57.214 35.8867C57.5722 35.2665 58.942 34.9006 58.9084 34.3852C58.8759 33.8702 58.7024 33.0255 58.4907 32.8205C58.2785 32.6149 59.1522 31.9626 58.8713 31.3041C58.5904 30.6452 58.1401 30.1368 58.1594 29.8173C58.1793 29.4977 58.4133 28.8062 58.2271 28.6988C58.0414 28.5915 57.4119 28.3925 57.2974 28.1615C57.1835 27.93 57.1504 27.4145 57.1504 27.4145C57.1504 27.4145 56.237 27.1347 56.1327 26.7434C56.0279 26.3521 56.1154 24.9141 56.1154 24.9141C56.1154 24.9141 55.1374 25.1756 55.0682 24.7222C55 24.2689 55.3124 23.8709 55.1364 23.6038C54.9603 23.3367 54.0373 23.2166 54.0373 23.2166C54.0373 23.2166 52.7362 24.0358 52.0065 24.4403C51.2758 24.8449 50.5553 25.0901 50.596 27.5947C50.6367 30.0987 49.6236 31.9941 48.8573 32.4607C48.0915 32.9273 46.0927 33.0947 46.0927 33.0947C46.0927 33.0947 45.0496 33.8977 47.0204 35.7814Z" fill="#75E6A4"/>
<path d="M54.0343 41.2426C54.0343 41.2426 54.2165 40.3556 53.2868 39.8178C52.3572 39.2805 50.9446 37.7193 50.9446 37.7193L50.249 36.4905" stroke="#233239" stroke-width="1.33333" stroke-miterlimit="10" stroke-linecap="round" stroke-linejoin="round"/>
<path d="M50.8559 42.8782C50.8559 42.8782 50.862 41.7236 50.5384 40.71C50.2148 39.6959 50.0352 38.4339 50.0352 38.4339" stroke="#233239" stroke-width="1.33333" stroke-miterlimit="10" stroke-linecap="round" stroke-linejoin="round"/>
<path d="M21.3581 21.4728C21.3581 24.9711 18.5223 27.8069 15.024 27.8069C11.5257 27.8069 8.68994 24.9711 8.68994 21.4728C8.68994 17.9745 11.5257 15.1388 15.024 15.1388C18.5223 15.1388 21.3581 17.9745 21.3581 21.4728Z" fill="white"/>
<path d="M21.3581 21.4728C21.3581 24.9711 18.5223 27.8069 15.024 27.8069C11.5257 27.8069 8.68994 24.9711 8.68994 21.4728C8.68994 17.9745 11.5257 15.1388 15.024 15.1388C18.5223 15.1388 21.3581 17.9745 21.3581 21.4728Z" stroke="#018361" stroke-miterlimit="10" stroke-linecap="round" stroke-linejoin="round"/>
<path d="M21.3581 20.7863C21.3581 24.2846 18.5223 27.1204 15.024 27.1204C11.5257 27.1204 8.68994 24.2846 8.68994 20.7863C8.68994 17.288 11.5257 14.4522 15.024 14.4522C18.5223 14.4522 21.3581 17.288 21.3581 20.7863Z" fill="white"/>
<path d="M21.3581 20.7863C21.3581 24.2846 18.5223 27.1204 15.024 27.1204C11.5257 27.1204 8.68994 24.2846 8.68994 20.7863C8.68994 17.288 11.5257 14.4522 15.024 14.4522C18.5223 14.4522 21.3581 17.288 21.3581 20.7863Z" stroke="#018361" stroke-miterlimit="10" stroke-linecap="round" stroke-linejoin="round"/>
<path d="M20.6818 20.7863C20.6818 23.9111 18.1483 26.4441 15.024 26.4441C11.8992 26.4441 9.3667 23.9111 9.3667 20.7863C9.3667 17.6615 11.8992 15.1285 15.024 15.1285C18.1483 15.1285 20.6818 17.6615 20.6818 20.7863Z" fill="white"/>
<path d="M15.4326 17.2133C15.4326 17.2133 14.4795 15.1703 14.6159 16.3279C14.7518 17.4861 15.2285 18.3033 15.4326 17.2133Z" stroke="#233239" stroke-miterlimit="10" stroke-linecap="round" stroke-linejoin="round"/>
<path d="M13.0755 18.0835C13.0755 18.0835 11.519 16.4517 12.0181 17.5055C12.5168 18.5593 13.2297 19.1811 13.0755 18.0835Z" stroke="#233239" stroke-miterlimit="10" stroke-linecap="round" stroke-linejoin="round"/>
<path d="M17.748 18.0835C17.748 18.0835 19.3045 16.4517 18.8053 17.5055C18.3067 18.5593 17.5938 19.1811 17.748 18.0835Z" stroke="#233239" stroke-miterlimit="10" stroke-linecap="round" stroke-linejoin="round"/>
<path d="M18.4974 21.5043C18.4974 21.5043 20.7454 21.3287 19.6708 21.7801C18.5951 22.2309 17.6491 22.2182 18.4974 21.5043Z" stroke="#233239" stroke-miterlimit="10" stroke-linecap="round" stroke-linejoin="round"/>
<path d="M17.6087 23.142C17.6087 23.142 19.6553 24.0879 18.4971 23.9562C17.339 23.8239 16.5198 23.3506 17.6087 23.142Z" stroke="#233239" stroke-miterlimit="10" stroke-linecap="round" stroke-linejoin="round"/>
<path d="M16.1172 25.053C16.1172 25.053 15.4634 22.895 15.4338 24.0607C15.4043 25.226 15.76 26.1027 16.1172 25.053Z" stroke="#233239" stroke-miterlimit="10" stroke-linecap="round" stroke-linejoin="round"/>
<path d="M13.1169 24.0242C13.1169 24.0242 11.9339 25.943 12.8264 25.1935C13.7189 24.4435 14.1402 23.5962 13.1169 24.0242Z" stroke="#233239" stroke-miterlimit="10" stroke-linecap="round" stroke-linejoin="round"/>
<path d="M30.3236 15.7962C30.3236 18.9485 27.7682 21.5044 24.6154 21.5044C21.4631 21.5044 18.9072 18.9485 18.9072 15.7962C18.9072 12.6439 21.4631 10.088 24.6154 10.088C27.7682 10.088 30.3236 12.6439 30.3236 15.7962Z" fill="white"/>
<path d="M30.3236 15.7962C30.3236 18.9485 27.7682 21.5044 24.6154 21.5044C21.4631 21.5044 18.9072 18.9485 18.9072 15.7962C18.9072 12.6439 21.4631 10.088 24.6154 10.088C27.7682 10.088 30.3236 12.6439 30.3236 15.7962Z" stroke="#233239" stroke-width="1.33333" stroke-miterlimit="10" stroke-linecap="round" stroke-linejoin="round"/>
<path d="M30.3236 15.1773C30.3236 18.3296 27.7682 20.8855 24.6154 20.8855C21.4631 20.8855 18.9072 18.3296 18.9072 15.1773C18.9072 12.025 21.4631 9.46911 24.6154 9.46911C27.7682 9.46911 30.3236 12.025 30.3236 15.1773Z" fill="white"/>
<path d="M30.3236 15.1773C30.3236 18.3296 27.7682 20.8855 24.6154 20.8855C21.4631 20.8855 18.9072 18.3296 18.9072 15.1773C18.9072 12.025 21.4631 9.46911 24.6154 9.46911C27.7682 9.46911 30.3236 12.025 30.3236 15.1773Z" stroke="#233239" stroke-miterlimit="10" stroke-linecap="round" stroke-linejoin="round"/>
<path d="M29.7143 15.1773C29.7143 17.9932 27.4316 20.2759 24.6152 20.2759C21.7998 20.2759 19.5171 17.9932 19.5171 15.1773C19.5171 12.3613 21.7998 10.0787 24.6152 10.0787C27.4316 10.0787 29.7143 12.3613 29.7143 15.1773Z" fill="white"/>
<path d="M24.9836 11.9576C24.9836 11.9576 24.1247 10.1161 24.2473 11.1598C24.37 12.2034 24.7999 12.9397 24.9836 11.9576Z" stroke="#233239" stroke-miterlimit="10" stroke-linecap="round" stroke-linejoin="round"/>
<path d="M22.8594 12.7417C22.8594 12.7417 21.457 11.2711 21.9068 12.2206C22.3566 13.1701 22.9983 13.7309 22.8594 12.7417Z" stroke="#233239" stroke-miterlimit="10" stroke-linecap="round" stroke-linejoin="round"/>
<path d="M27.0706 12.7417C27.0706 12.7417 28.4724 11.2711 28.0231 12.2206C27.5733 13.1701 26.9316 13.7309 27.0706 12.7417Z" stroke="#233239" stroke-miterlimit="10" stroke-linecap="round" stroke-linejoin="round"/>
<path d="M27.7456 15.8244C27.7456 15.8244 29.7713 15.6661 28.803 16.0727C27.8342 16.4797 26.9814 16.468 27.7456 15.8244Z" stroke="#233239" stroke-miterlimit="10" stroke-linecap="round" stroke-linejoin="round"/>
<path d="M26.9451 17.3003C26.9451 17.3003 28.7896 18.1526 27.7455 18.0335C26.7018 17.915 25.9635 17.488 26.9451 17.3003Z" stroke="#233239" stroke-miterlimit="10" stroke-linecap="round" stroke-linejoin="round"/>
<path d="M25.6006 19.0225C25.6006 19.0225 25.0119 17.0777 24.9849 18.1279C24.9585 19.1787 25.279 19.9684 25.6006 19.0225Z" stroke="#233239" stroke-miterlimit="10" stroke-linecap="round" stroke-linejoin="round"/>
<path d="M22.8972 18.0952C22.8972 18.0952 21.8302 19.8248 22.6347 19.149C23.4392 18.4733 23.8193 17.7095 22.8972 18.0952Z" stroke="#233239" stroke-miterlimit="10" stroke-linecap="round" stroke-linejoin="round"/>
<path d="M52.1112 35.8637C55.0803 36.9231 56.6287 40.1889 55.5693 43.158C54.5099 46.1271 51.2441 47.675 48.275 46.6155C45.3059 45.5561 43.758 42.2909 44.8174 39.3213C45.8763 36.3522 49.1421 34.8043 52.1112 35.8637Z" fill="white"/>
<path d="M52.1112 35.8637C55.0803 36.9231 56.6287 40.1889 55.5693 43.158C54.5099 46.1271 51.2441 47.675 48.275 46.6155C45.3059 45.5561 43.758 42.2909 44.8174 39.3213C45.8763 36.3522 49.1421 34.8043 52.1112 35.8637Z" stroke="#233239" stroke-miterlimit="10" stroke-linecap="round" stroke-linejoin="round"/>
<path d="M51.5284 35.6557C54.4975 36.7151 56.0459 39.9809 54.9865 42.9494C53.9271 45.9191 50.6614 47.4669 47.6923 46.4075C44.7232 45.3481 43.1753 42.0824 44.2342 39.1133C45.2936 36.1442 48.5593 34.5963 51.5284 35.6557Z" fill="white"/>
<path d="M51.3234 36.2296C53.9755 37.1755 55.3586 40.0927 54.4121 42.7448C53.4662 45.3969 50.549 46.7799 47.8969 45.834C45.2448 44.8876 43.8618 41.9704 44.8082 39.3183C45.7547 36.6662 48.6714 35.2837 51.3234 36.2296Z" fill="white"/>
<path d="M46.7017 39.6029C46.7017 39.6029 44.6785 39.7937 45.7023 40.0283C46.7266 40.2634 47.5647 40.1062 46.7017 39.6029Z" stroke="#233239" stroke-miterlimit="10" stroke-linecap="round" stroke-linejoin="round"/>
<path d="M46.7263 41.8671C46.7263 41.8671 44.8705 42.6935 45.9152 42.5892C46.9608 42.4848 47.7048 42.0686 46.7263 41.8671Z" stroke="#233239" stroke-miterlimit="10" stroke-linecap="round" stroke-linejoin="round"/>
<path d="M48.1415 37.9007C48.1415 37.9007 47.2276 36.0861 47.971 36.8285C48.7145 37.5709 49.0264 38.3642 48.1415 37.9007Z" stroke="#233239" stroke-miterlimit="10" stroke-linecap="round" stroke-linejoin="round"/>
<path d="M51.2715 38.3009C51.2715 38.3009 51.8037 36.3399 51.8607 37.3891C51.9182 38.4378 51.6211 39.2367 51.2715 38.3009Z" stroke="#233239" stroke-miterlimit="10" stroke-linecap="round" stroke-linejoin="round"/>
<path d="M52.393 39.551C52.393 39.551 53.8152 38.1003 53.3526 39.0432C52.8901 39.9865 52.2398 40.5381 52.393 39.551Z" stroke="#233239" stroke-miterlimit="10" stroke-linecap="round" stroke-linejoin="round"/>
<path d="M53.5627 41.3961C53.5627 41.3961 51.5335 41.2974 52.5135 41.6754C53.4935 42.0535 54.3458 42.0169 53.5627 41.3961Z" stroke="#233239" stroke-miterlimit="10" stroke-linecap="round" stroke-linejoin="round"/>
<path d="M51.7812 43.6308C51.7812 43.6308 53.0513 45.2168 52.6854 44.2317C52.3196 43.2471 51.7278 42.6334 51.7812 43.6308Z" stroke="#233239" stroke-miterlimit="10" stroke-linecap="round" stroke-linejoin="round"/>
<path d="M49.3799 44.4657C49.3799 44.4657 49.8922 46.432 49.9602 45.3833C50.028 44.3351 49.7381 43.5334 49.3799 44.4657Z" stroke="#233239" stroke-miterlimit="10" stroke-linecap="round" stroke-linejoin="round"/>
<path d="M28.7335 20.2655C28.7335 20.2655 25.9496 18.9664 24.3722 18.9664C22.7943 18.9664 20.6602 19.8946 19.1754 23.2351C17.6906 26.5756 16.8551 29.8241 18.3399 32.7006C19.8247 35.5776 22.6091 36.8767 24.3722 36.5057C26.1353 36.1342 27.898 33.1646 29.3833 28.0605C30.8681 22.9568 30.0331 21.0079 28.7335 20.2655Z" fill="white"/>
<path d="M28.7335 20.2655C28.7335 20.2655 25.9496 18.9664 24.3722 18.9664C22.7943 18.9664 20.6602 19.8946 19.1754 23.2351C17.6906 26.5756 16.8551 29.8241 18.3399 32.7006C19.8247 35.5776 22.6091 36.8767 24.3722 36.5057C26.1353 36.1342 27.898 33.1646 29.3833 28.0605C30.8681 22.9568 30.0331 21.0079 28.7335 20.2655Z" stroke="#233239" stroke-miterlimit="10" stroke-linecap="round" stroke-linejoin="round"/>
<path d="M19.1754 23.2351C17.6906 26.5757 16.8551 29.8241 18.3399 32.7011C19.4715 34.8932 21.3568 36.1663 22.9709 36.4854C22.7958 36.3597 22.5862 36.2365 22.3302 36.1343C21.4026 35.7633 20.0104 34.3711 19.5463 30.7517C19.0823 27.1328 21.0311 23.8844 23.1657 21.3794C25.2998 18.8733 28.7335 20.2655 28.7335 20.2655C28.7335 20.2655 25.9496 18.9664 24.3722 18.9664C22.7943 18.9664 20.6602 19.8946 19.1754 23.2351Z" fill="white"/>
<path d="M19.1754 23.2351C17.6906 26.5756 16.8551 29.8241 18.3399 32.7011C19.4715 34.8932 21.3568 36.1663 22.9709 36.4854C22.7958 36.3597 22.5862 36.2365 22.3302 36.1343C21.4026 35.7633 20.0104 34.3711 19.5463 30.7517C19.0823 27.1328 21.0311 23.8844 23.1657 21.3794C25.2998 18.8733 28.7335 20.2655 28.7335 20.2655C28.7335 20.2655 25.9496 18.9664 24.3722 18.9664C22.7943 18.9664 20.6602 19.8946 19.1754 23.2351Z" stroke="#233239" stroke-miterlimit="10" stroke-linecap="round" stroke-linejoin="round"/>
<path d="M25.0338 27.5105C25.0338 27.5105 24.1423 21.3988 24.4609 21.208C24.7794 21.0172 26.1797 19.9343 26.3069 20.953C26.4347 21.9718 25.0338 27.5105 25.0338 27.5105Z" fill="#75E6A4"/>
<path d="M24.5245 27.829C24.5245 27.829 21.7869 24.9006 21.4048 25.0279C21.0231 25.1551 20.7046 26.6195 20.7046 27.3197C20.7046 28.0199 24.5245 27.829 24.5245 27.829Z" fill="#F2B767"/>
<path d="M24.5243 27.8291C24.5243 27.8291 20.8953 28.2107 20.5136 28.7837C20.1315 29.3566 20.0043 31.394 20.3223 31.649C20.6408 31.9034 24.5243 27.8291 24.5243 27.8291Z" fill="#F2B767"/>
<path d="M24.5245 27.829C24.5245 27.829 20.7682 31.8397 20.8319 32.4126C20.8955 32.9856 21.787 34.9594 22.742 34.45C23.6971 33.9407 24.5245 27.829 24.5245 27.829Z" fill="#F2B767"/>
<path d="M27.0711 20.5712L25.0337 27.5103C25.0337 27.5103 28.1534 24.1997 28.6628 22.4809C29.1721 20.762 27.0711 20.5712 27.0711 20.5712Z" fill="#75E6A4"/>
<path d="M24.7794 28.2746C24.7794 28.2746 22.9328 34.5771 23.5058 35.0229C24.0787 35.4686 25.0338 35.4686 25.734 34.5135C26.4347 33.5589 24.7794 28.2746 24.7794 28.2746Z" fill="#F2B767"/>
<path d="M25.0337 27.5105C25.0337 27.5105 26.3704 33.24 26.6253 33.5586C26.8798 33.8771 27.9621 31.7761 27.7713 30.6302C27.5804 29.4843 25.0337 27.5105 25.0337 27.5105Z" fill="#75E6A4"/>
<path d="M28.1534 29.739C28.1534 29.739 29.2357 27.32 29.2993 26.3013C29.3629 25.2826 25.0337 27.5108 25.0337 27.5108C25.0337 27.5108 27.0075 28.211 28.1534 29.739Z" fill="#75E6A4"/>
<path d="M26.1162 26.6829C26.1162 26.6829 29.1723 22.3536 29.2995 23.0543C29.4267 23.7545 29.6817 24.9004 29.4903 25.2189C29.2995 25.5369 26.1162 26.6829 26.1162 26.6829Z" fill="#75E6A4"/>
<path d="M34.0178 15.6818C34.0178 15.6818 31.2334 14.3827 29.6565 14.3827C28.0786 14.3827 25.944 15.3108 24.4592 18.6514C22.9744 21.9919 22.1394 25.2404 23.6242 28.1168C25.109 30.9938 27.8929 32.2929 29.6565 31.922C31.4197 31.5505 33.1823 28.5809 34.6671 23.4767C36.1519 18.373 35.3174 16.4242 34.0178 15.6818Z" fill="white"/>
<path d="M34.0178 15.6818C34.0178 15.6818 31.2334 14.3827 29.6565 14.3827C28.0786 14.3827 25.944 15.3108 24.4592 18.6514C22.9744 21.9919 22.1394 25.2404 23.6242 28.1168C25.109 30.9938 27.8929 32.2929 29.6565 31.922C31.4197 31.5505 33.1823 28.5809 34.6671 23.4767C36.1519 18.373 35.3174 16.4242 34.0178 15.6818Z" stroke="#233239" stroke-width="1.33333" stroke-miterlimit="10" stroke-linecap="round" stroke-linejoin="round"/>
<path d="M24.4587 18.6514C22.9739 21.9919 22.1389 25.2404 23.6237 28.1174C24.7554 30.3094 26.6407 31.5826 28.2542 31.9016C28.0792 31.7759 27.8695 31.6528 27.6141 31.5505C26.6859 31.1796 25.2943 29.7874 24.8297 26.168C24.3661 22.5491 26.315 19.3006 28.4496 16.7956C30.5837 14.2896 34.0173 15.6818 34.0173 15.6818C34.0173 15.6818 31.233 14.3827 29.6561 14.3827C28.0781 14.3827 25.9435 15.3108 24.4587 18.6514Z" fill="white"/>
<path d="M24.4587 18.6514C22.9739 21.9919 22.1389 25.2404 23.6237 28.1174C24.7554 30.3094 26.6407 31.5826 28.2542 31.9016C28.0792 31.7759 27.8695 31.6528 27.6141 31.5505C26.6859 31.1796 25.2943 29.7874 24.8297 26.168C24.3661 22.5491 26.315 19.3006 28.4496 16.7956C30.5837 14.2896 34.0173 15.6818 34.0173 15.6818C34.0173 15.6818 31.233 14.3827 29.6561 14.3827C28.0781 14.3827 25.9435 15.3108 24.4587 18.6514Z" stroke="#233239" stroke-miterlimit="10" stroke-linecap="round" stroke-linejoin="round"/>
<path d="M30.318 22.927C30.318 22.927 29.4265 16.8153 29.745 16.624C30.0631 16.4332 31.4639 15.3509 31.5911 16.3696C31.7183 17.3883 30.318 22.927 30.318 22.927Z" fill="#F2B767"/>
<path d="M29.8091 23.2451C29.8091 23.2451 29.6818 16.8785 28.854 17.5792C28.0266 18.2793 26.6893 19.5524 27.1351 19.7438C27.5808 19.9346 29.8091 23.2451 29.8091 23.2451Z" fill="#F2B767"/>
<path d="M29.8086 23.2453C29.8086 23.2453 27.0711 20.3169 26.6889 20.4441C26.3068 20.5713 25.9888 22.0358 25.9888 22.7359C25.9888 23.4361 29.8086 23.2453 29.8086 23.2453Z" fill="#F2B767"/>
<path d="M29.8085 23.2451C29.8085 23.2451 26.1795 23.6267 25.7973 24.1997C25.4157 24.7726 25.2885 26.81 25.6065 27.065C25.9251 27.3194 29.8085 23.2451 29.8085 23.2451Z" fill="#F2B767"/>
<path d="M29.8087 23.2453C29.8087 23.2453 26.0524 27.2559 26.116 27.8289C26.1796 28.4019 27.0711 30.3757 28.0262 29.8663C28.9808 29.357 29.8087 23.2453 29.8087 23.2453Z" fill="#F2B767"/>
<path d="M32.3553 15.9874L30.3179 22.927C30.3179 22.927 33.4371 19.616 33.9464 17.8971C34.4558 16.1782 32.3553 15.9874 32.3553 15.9874Z" fill="#F2B767"/>
<path d="M44.4111 14.9393C44.4111 14.9393 43.7618 16.5167 44.1327 18.0946C44.5042 19.672 44.6899 19.9504 44.6899 21.4352C44.6899 22.92 44.4111 23.8481 43.9475 24.6831C43.4835 25.5186 43.2977 26.1679 42.3696 27.3744C41.4415 28.5808 43.0194 28.0242 40.7922 29.4164C38.565 30.808 37.9152 31.6436 37.9152 32.0145C37.9152 32.386 36.6161 33.7776 39.5857 33.685C42.5553 33.5924 46.3599 28.674 47.0092 26.261C47.6595 23.8481 48.3088 18.6513 47.3812 16.8882C46.4531 15.125 45.4323 14.2895 44.4111 14.9393Z" fill="#A6A6A6"/>
<path d="M44.4111 14.9393C44.4111 14.9393 43.7618 16.5167 44.1327 18.0946C44.5042 19.672 44.6899 19.9504 44.6899 21.4352C44.6899 22.92 44.4111 23.8481 43.9475 24.6831C43.4835 25.5186 43.2977 26.1679 42.3696 27.3744C41.4415 28.5808 43.0194 28.0242 40.7922 29.4164C38.565 30.808 37.9152 31.6436 37.9152 32.0145C37.9152 32.386 36.6161 33.7776 39.5857 33.685C42.5553 33.5924 46.3599 28.674 47.0092 26.261C47.6595 23.8481 48.3088 18.6513 47.3812 16.8882C46.4531 15.125 45.4323 14.2895 44.4111 14.9393Z" stroke="#233239" stroke-miterlimit="10" stroke-linecap="round" stroke-linejoin="round"/>
<path d="M45.1537 11.1343C45.1537 11.1343 45.7109 9.27854 44.133 8.16468C42.5556 7.05134 39.4928 8.25729 37.5445 10.8559C35.5956 13.4546 35.7808 14.568 35.3173 15.4961C34.8532 16.4242 27.6144 27.8386 25.6656 32.4787C23.7167 37.1183 21.8609 39.9027 22.4176 44.1714C22.9743 48.4401 23.3457 52.2452 26.7794 54.565C30.2131 56.8853 29.8416 56.4212 30.2131 56.8853C30.584 57.3489 30.9555 57.2563 32.9043 56.4212C34.8532 55.5857 37.2656 56.0498 39.4002 54.6581C41.5348 53.2659 43.8546 51.5954 44.8754 49.6465C45.8961 47.6976 48.2164 43.7073 49.7938 37.9538C51.3718 32.1998 52.2068 26.8178 52.2994 25.0542C52.3925 23.291 53.7847 19.0224 53.8773 17.0735C53.9699 15.1246 54.2482 14.7537 52.2068 12.526C50.1653 10.2988 48.309 11.1343 47.474 11.9698C46.6385 12.8048 44.4113 13.4546 44.4113 14.9394C44.4113 16.4242 46.0818 17.8159 46.3602 20.5072C46.6385 23.1984 46.175 25.4256 45.6178 26.6321C45.0611 27.8386 43.5763 29.9726 42.5556 30.9934C41.5348 32.0146 39.1219 32.8496 38.8436 32.0146C38.5652 31.1791 37.8228 27.6528 37.8228 26.2606C37.8228 24.869 38.008 23.1053 39.3076 20.6929C40.6062 18.28 41.8132 16.702 42.7413 15.1246C43.6689 13.5472 44.3187 13.7324 45.1537 11.1343Z" fill="#FFA09F"/>
<path d="M45.1537 11.1343C45.1537 11.1343 45.7109 9.27854 44.133 8.16469C42.5556 7.05134 39.4928 8.25729 37.5445 10.8559C35.5956 13.4546 35.7808 14.568 35.3173 15.4961C34.8532 16.4242 27.6144 27.8386 25.6656 32.4787C23.7167 37.1183 21.8609 39.9027 22.4176 44.1714C22.9743 48.4401 23.3457 52.2452 26.7794 54.565C30.2131 56.8853 29.8416 56.4212 30.2131 56.8853C30.584 57.3489 30.9555 57.2563 32.9043 56.4212C34.8532 55.5857 37.2656 56.0498 39.4002 54.6581C41.5348 53.2659 43.8546 51.5954 44.8754 49.6465C45.8961 47.6976 48.2164 43.7073 49.7938 37.9538C51.3718 32.1998 52.2068 26.8178 52.2994 25.0542C52.3925 23.291 53.7847 19.0224 53.8773 17.0735C53.9699 15.1246 54.2482 14.7537 52.2068 12.526C50.1653 10.2988 48.309 11.1343 47.474 11.9698C46.6385 12.8048 44.4113 13.4546 44.4113 14.9394C44.4113 16.4242 46.0818 17.8159 46.3602 20.5072C46.6385 23.1984 46.175 25.4256 45.6178 26.6321C45.0611 27.8386 43.5763 29.9726 42.5556 30.9934C41.5348 32.0146 39.1219 32.8496 38.8436 32.0146C38.5652 31.1791 37.8228 27.6528 37.8228 26.2606C37.8228 24.869 38.008 23.1053 39.3076 20.6929C40.6062 18.28 41.8132 16.702 42.7413 15.1246C43.6689 13.5472 44.3187 13.7324 45.1537 11.1343Z" stroke="#233239" stroke-miterlimit="10" stroke-linecap="round" stroke-linejoin="round"/>
<path d="M34.0178 54.7507C31.6975 54.7507 30.3058 55.4005 30.3058 55.4005C30.3058 55.4005 28.4501 54.3798 27.4294 53.4516C26.4081 52.5235 23.4385 48.6258 23.7168 42.9649C23.9957 37.304 28.1718 28.9519 29.1925 27.1888C30.2127 25.4256 34.3888 19.3007 35.5026 17.5376C36.616 15.7744 36.7091 15.032 37.0806 12.9905C37.3182 11.6803 38.8915 9.80112 39.9896 8.61959C39.1108 9.15184 38.2534 9.91002 37.5446 10.856C35.5958 13.4546 35.781 14.568 35.3174 15.4961C34.8534 16.4242 27.6146 27.8386 25.6657 32.4787C23.7168 37.1188 21.8606 39.9027 22.4178 44.1714C22.9744 48.4406 23.3454 52.2452 26.7791 54.565C30.2127 56.8853 29.8418 56.4212 30.2127 56.8853C30.5842 57.3489 30.9551 57.2563 32.9045 56.4212C34.8534 55.5862 37.2658 56.0498 39.4004 54.6581C41.5345 53.2659 43.8548 51.5954 44.8755 49.6465C44.1331 50.1106 40.7921 52.1526 39.1215 53.2659C37.4515 54.3798 36.3382 54.7507 34.0178 54.7507Z" fill="#233239"/>
<path d="M34.0178 54.7507C31.6975 54.7507 30.3058 55.4005 30.3058 55.4005C30.3058 55.4005 28.4501 54.3798 27.4294 53.4516C26.4081 52.5235 23.4385 48.6258 23.7168 42.9649C23.9957 37.304 28.1718 28.9519 29.1925 27.1888C30.2127 25.4256 34.3888 19.3007 35.5026 17.5376C36.616 15.7744 36.7091 15.032 37.0806 12.9905C37.3182 11.6803 38.8915 9.80112 39.9896 8.61959C39.1108 9.15184 38.2534 9.91002 37.5446 10.856C35.5958 13.4546 35.781 14.568 35.3174 15.4961C34.8534 16.4242 27.6146 27.8386 25.6657 32.4787C23.7168 37.1188 21.8606 39.9027 22.4178 44.1714C22.9744 48.4406 23.3454 52.2452 26.7791 54.565C30.2127 56.8853 29.8418 56.4212 30.2127 56.8853C30.5842 57.3489 30.9551 57.2563 32.9045 56.4212C34.8534 55.5862 37.2658 56.0498 39.4004 54.6581C41.5345 53.2659 43.8548 51.5954 44.8755 49.6465C44.1331 50.1106 40.7921 52.1526 39.1215 53.2659C37.4515 54.3798 36.3382 54.7507 34.0178 54.7507Z" stroke="#233239" stroke-miterlimit="10" stroke-linecap="round" stroke-linejoin="round"/>
<path d="M31.7266 42.2893C32.8409 42.5585 33.6464 42.501 33.6464 42.501" stroke="#233239" stroke-width="1.33333" stroke-miterlimit="10" stroke-linecap="round" stroke-linejoin="round"/>
<path d="M26.5005 35.8195C26.5005 35.8195 26.4074 38.9748 28.7277 40.8305C29.3531 41.3312 29.9993 41.6834 30.6094 41.9307" stroke="#233239" stroke-miterlimit="10" stroke-linecap="round" stroke-linejoin="round"/>
<path d="M25.6655 42.501C25.6655 42.501 28.0785 43.3365 29.9347 43.8932C31.7905 44.4498 32.7181 44.1715 32.7181 44.1715" stroke="#233239" stroke-miterlimit="10" stroke-linecap="round" stroke-linejoin="round"/>
<path d="M29.5776 46.8385C30.4472 46.8802 31.323 46.8237 32.0689 46.5841" stroke="#233239" stroke-miterlimit="10" stroke-linecap="round" stroke-linejoin="round"/>
<path d="M25.2944 46.0273C25.2944 46.0273 26.8016 46.5295 28.5683 46.7499" stroke="#233239" stroke-miterlimit="10" stroke-linecap="round" stroke-linejoin="round"/>
<path d="M34.667 47.7907C34.667 47.7907 39.0288 50.482 41.7201 50.111" stroke="#233239" stroke-miterlimit="10" stroke-linecap="round" stroke-linejoin="round"/>
<path d="M36.1519 45.2849C36.1519 45.2849 39.7712 47.1412 43.3906 45.8421C47.0095 44.5425 47.7524 42.037 47.7524 42.037" stroke="#233239" stroke-miterlimit="10" stroke-linecap="round" stroke-linejoin="round"/>
<path d="M46.3574 40.2885C46.9395 39.5791 47.1024 39.0672 47.1024 39.0672" stroke="#233239" stroke-width="1.33333" stroke-miterlimit="10" stroke-linecap="round" stroke-linejoin="round"/>
<path d="M36.4307 42.9651C36.4307 42.9651 39.7712 44.2641 43.1123 42.6867C43.9463 42.2929 44.6123 41.87 45.1425 41.4574" stroke="#233239" stroke-miterlimit="10" stroke-linecap="round" stroke-linejoin="round"/>
<path d="M36.4308 27.3746C36.4308 27.3746 31.8833 27.6529 29.2852 30.9009" stroke="#233239" stroke-miterlimit="10" stroke-linecap="round" stroke-linejoin="round"/>
<path d="M33.9019 25.6423C34.831 25.2994 35.8736 24.9966 36.8944 24.8689" stroke="#233239" stroke-miterlimit="10" stroke-linecap="round" stroke-linejoin="round"/>
<path d="M30.77 27.0962C30.77 27.0962 31.5506 26.6367 32.7016 26.1294" stroke="#233239" stroke-miterlimit="10" stroke-linecap="round" stroke-linejoin="round"/>
<path d="M34.2959 21.7136C34.2959 21.7136 37.2655 20.8781 38.2867 20.7855" stroke="#233239" stroke-miterlimit="10" stroke-linecap="round" stroke-linejoin="round"/>
<path d="M40.3926 15.905C40.6984 15.8694 40.9905 15.8536 41.2561 15.8674" stroke="#233239" stroke-miterlimit="10" stroke-linecap="round" stroke-linejoin="round"/>
<path d="M36.2446 17.0735C36.2446 17.0735 37.3605 16.614 38.655 16.2614" stroke="#233239" stroke-miterlimit="10" stroke-linecap="round" stroke-linejoin="round"/>
<path d="M48.4946 17.7232C48.4946 17.7232 51.2785 19.1154 51.9278 21.0637" stroke="#233239" stroke-miterlimit="10" stroke-linecap="round" stroke-linejoin="round"/>
<path d="M48.4019 22.085C48.4019 22.085 51.6498 23.9408 51.8355 26.6326" stroke="#233239" stroke-miterlimit="10" stroke-linecap="round" stroke-linejoin="round"/>
<path d="M47.0098 29.4163C47.0098 29.4163 49.6084 31.4578 49.0517 35.8196" stroke="#233239" stroke-miterlimit="10" stroke-linecap="round" stroke-linejoin="round"/>
<path d="M37.3581 33.5922C37.3581 33.5922 36.2448 34.1489 36.4305 35.6337C36.6157 37.1185 36.8941 37.2111 36.6157 37.6752C36.3374 38.1393 34.3885 43.6144 34.0176 45.2849C33.6461 46.9555 33.1821 48.3477 32.6254 49.461C32.0682 50.5749 31.6973 52.1523 31.6973 52.6163" stroke="#233239" stroke-miterlimit="10" stroke-linecap="round" stroke-linejoin="round"/>
<path d="M39.9568 35.1697C39.9568 35.1697 39.8636 37.1185 39.1212 37.3043C38.3788 37.49 37.5443 37.9535 37.5443 37.9535L36.894 40.4596" stroke="#233239" stroke-miterlimit="10" stroke-linecap="round" stroke-linejoin="round"/>
<path d="M35.5956 31.8289C35.5956 31.8289 32.4403 31.6432 30.3057 35.1694" stroke="#233239" stroke-miterlimit="10" stroke-linecap="round" stroke-linejoin="round"/>
</svg>
