<svg width="150" height="41" viewBox="0 0 150 41" fill="none" xmlns="http://www.w3.org/2000/svg">
<path d="M12.5513 21.1274L6.42206 15.0386L6.02616 15.4319L2.09961 11.5313C1.79633 11.23 1.46774 11.1283 1.11383 11.2262C0.759926 11.3241 0.533707 11.5488 0.435171 11.9004C0.336636 12.252 0.439007 12.5784 0.742288 12.8797L10.7981 22.869C11.1812 23.2496 11.5971 23.3755 12.0458 23.247C12.4945 23.1184 12.7867 22.8282 12.9224 22.3762C13.0581 21.9242 12.9344 21.508 12.5513 21.1274Z" fill="white"/>
<path d="M5.36401 13.0423L4.10132 14.2966L7.70696 17.8784L8.96965 16.6241L5.36401 13.0423Z" fill="white"/>
<path d="M6.5832 20.2226C6.5832 21.4904 6.84989 22.6162 7.3832 23.6001C7.91655 24.5841 8.64989 25.3598 9.5832 25.9275C10.5165 26.4951 11.6023 26.779 12.8403 26.779C14.0785 26.779 15.1642 26.4951 16.0975 25.9275C17.0308 25.3598 17.7546 24.5841 18.2689 23.6001C18.8023 22.6162 19.0689 21.4904 19.0689 20.2226C19.0689 18.9548 18.8118 17.829 18.2975 16.8451C17.7832 15.8611 17.0594 15.0853 16.1261 14.5177C15.1927 13.95 14.0975 13.6662 12.8403 13.6662C11.6023 13.6662 10.5165 13.95 9.5832 14.5177C8.64989 15.0853 7.91655 15.8611 7.3832 16.8451C6.84989 17.829 6.5832 18.9548 6.5832 20.2226ZM2.26892 20.2226C2.26892 18.7089 2.53559 17.3276 3.06892 16.0787C3.60226 14.811 4.34511 13.7135 5.29748 12.7863C6.24989 11.8592 7.36418 11.1496 8.64034 10.6576C9.93561 10.1468 11.3356 9.89132 12.8403 9.89132C14.3642 9.89132 15.7642 10.1468 17.0403 10.6576C18.3165 11.1496 19.4308 11.8592 20.3832 12.7863C21.3546 13.7135 22.0975 14.811 22.6118 16.0787C23.1451 17.3276 23.4118 18.7089 23.4118 20.2226C23.4118 21.7174 23.1451 23.1082 22.6118 24.3948C22.0975 25.6626 21.3642 26.7695 20.4118 27.7156C19.4785 28.6617 18.3642 29.3996 17.0689 29.9294C15.7928 30.4403 14.3832 30.6958 12.8403 30.6958C11.2975 30.6958 9.87847 30.4403 8.5832 29.9294C7.30704 29.3996 6.19275 28.6617 5.24034 27.7156C4.28797 26.7695 3.55464 25.6626 3.04035 24.3948C2.52606 23.1082 2.26892 21.7174 2.26892 20.2226ZM34.7131 22.2094C34.7131 21.339 34.5417 20.6767 34.1988 20.2226C33.856 19.7685 33.3036 19.5414 32.5417 19.5414C32.0274 19.5414 31.5702 19.6549 31.1702 19.882C30.7703 20.0901 30.4655 20.3929 30.256 20.7902C30.0465 21.1876 29.9417 21.6607 29.9417 22.2094V30.1565H26.2274V17.1005H29.9417V19.0873C30.3417 18.3493 30.8655 17.7911 31.5131 17.4127C32.1798 17.0154 32.9798 16.8167 33.9131 16.8167C35.475 16.8167 36.6369 17.2614 37.3988 18.1507C38.1607 19.0211 38.5417 20.2415 38.5417 21.812V30.1565H34.7131V22.2094ZM54.1532 20.0807V18.2358H57.3817C57.9719 18.2358 58.4862 18.1412 58.9246 17.952C59.3625 17.7627 59.696 17.4884 59.9246 17.1289C60.1719 16.7694 60.296 16.3436 60.296 15.8517C60.296 15.0948 60.029 14.5177 59.496 14.1203C58.9817 13.723 58.2768 13.5243 57.3817 13.5243H55.1817V26.9209H57.8103C58.496 26.9209 59.1148 26.8263 59.6674 26.6371C60.2197 26.4289 60.6482 26.1072 60.9532 25.672C61.2768 25.2369 61.4389 24.6787 61.4389 23.9975C61.4389 23.5055 61.3433 23.0892 61.1532 22.7486C60.9817 22.3891 60.7246 22.0958 60.3817 21.8688C60.0576 21.6228 59.6768 21.4525 59.2389 21.3579C58.8005 21.2444 58.3246 21.1876 57.8103 21.1876H54.1532V18.9738H58.1817C59.1531 18.9738 60.0768 19.0778 60.9532 19.286C61.8482 19.4941 62.6482 19.8252 63.3532 20.2794C64.0576 20.7145 64.6103 21.2822 65.0103 21.9823C65.429 22.6824 65.6389 23.5244 65.6389 24.5084C65.6389 25.814 65.3246 26.8831 64.696 27.7156C64.0862 28.5481 63.2197 29.1631 62.096 29.5605C60.9719 29.9578 59.6674 30.1565 58.1817 30.1565H51.096V10.2887H57.7532C59.0862 10.2887 60.2576 10.4779 61.2674 10.8563C62.2768 11.2159 63.0674 11.7646 63.6389 12.5025C64.2103 13.2405 64.496 14.1771 64.496 15.3124C64.496 16.3152 64.2103 17.1762 63.6389 17.8952C63.0674 18.6142 62.2768 19.163 61.2674 19.5414C60.2576 19.9009 59.0862 20.0807 57.7532 20.0807H54.1532ZM71.4063 26.0978C71.4063 26.4762 71.5014 26.8074 71.692 27.0912C71.8822 27.3561 72.1393 27.5642 72.4634 27.7156C72.8063 27.8481 73.1777 27.9143 73.5777 27.9143C74.1491 27.9143 74.6634 27.8007 75.1206 27.5737C75.5777 27.3277 75.9491 26.9871 76.2348 26.5519C76.5206 26.0978 76.6634 25.5585 76.6634 24.9341L77.1206 26.6371C77.1206 27.4696 76.8822 28.1697 76.4063 28.7374C75.9491 29.305 75.3491 29.7308 74.6063 30.0146C73.8822 30.2984 73.1206 30.4403 72.3206 30.4403C71.5014 30.4403 70.7393 30.2795 70.0349 29.9578C69.3299 29.6362 68.7585 29.1726 68.3206 28.5671C67.9014 27.9427 67.692 27.1858 67.692 26.2965C67.692 25.0287 68.1393 24.0259 69.0349 23.2879C69.9299 22.55 71.1964 22.181 72.8348 22.181C73.6728 22.181 74.4063 22.2661 75.0348 22.4364C75.6822 22.6067 76.225 22.8148 76.6634 23.0608C77.1014 23.3068 77.4156 23.5434 77.6063 23.7704V25.4734C77.092 25.095 76.5107 24.8111 75.8634 24.6219C75.2349 24.4327 74.5679 24.3381 73.8634 24.3381C73.292 24.3381 72.825 24.4138 72.4634 24.5651C72.1014 24.6976 71.8348 24.8963 71.6634 25.1612C71.492 25.4072 71.4063 25.7194 71.4063 26.0978ZM69.9777 20.7902L68.6063 18.2926C69.292 17.933 70.1299 17.5925 71.1206 17.2708C72.1107 16.9302 73.2157 16.7599 74.4348 16.7599C75.5585 16.7599 76.5585 16.9208 77.4348 17.2424C78.3107 17.5641 78.9965 18.0371 79.492 18.6615C79.9871 19.267 80.2348 20.0145 80.2348 20.9038V30.1565H76.6634V21.6701C76.6634 21.3106 76.6063 21.0079 76.492 20.7619C76.3777 20.497 76.1965 20.2794 75.9491 20.1091C75.7206 19.9388 75.4442 19.8158 75.1206 19.7401C74.7965 19.6644 74.4348 19.6266 74.0348 19.6266C73.425 19.6266 72.8442 19.6928 72.292 19.8252C71.7393 19.9577 71.2634 20.1185 70.8634 20.3077C70.4634 20.497 70.1679 20.6578 69.9777 20.7902ZM83.6773 8.01807H87.3915V30.1565H83.6773V8.01807ZM93.6719 26.0978C93.6719 26.4762 93.767 26.8074 93.9576 27.0912C94.1478 27.3561 94.4049 27.5642 94.729 27.7156C95.0719 27.8481 95.4433 27.9143 95.8433 27.9143C96.4147 27.9143 96.929 27.8007 97.3862 27.5737C97.8433 27.3277 98.2148 26.9871 98.5005 26.5519C98.7862 26.0978 98.929 25.5585 98.929 24.9341L99.3862 26.6371C99.3862 27.4696 99.1478 28.1697 98.6719 28.7374C98.2148 29.305 97.6148 29.7308 96.8719 30.0146C96.1478 30.2984 95.3862 30.4403 94.5862 30.4403C93.767 30.4403 93.0049 30.2795 92.3005 29.9578C91.5956 29.6362 91.0241 29.1726 90.5862 28.5671C90.167 27.9427 89.9576 27.1858 89.9576 26.2965C89.9576 25.0287 90.4049 24.0259 91.3005 23.2879C92.1956 22.55 93.4621 22.181 95.1005 22.181C95.9384 22.181 96.6719 22.2661 97.3005 22.4364C97.9478 22.6067 98.4907 22.8148 98.929 23.0608C99.367 23.3068 99.6813 23.5434 99.8719 23.7704V25.4734C99.3576 25.095 98.7764 24.8111 98.129 24.6219C97.5005 24.4327 96.8335 24.3381 96.129 24.3381C95.5576 24.3381 95.0907 24.4138 94.729 24.5651C94.367 24.6976 94.1005 24.8963 93.929 25.1612C93.7576 25.4072 93.6719 25.7194 93.6719 26.0978ZM92.2433 20.7902L90.8719 18.2926C91.5576 17.933 92.3956 17.5925 93.3862 17.2708C94.3764 16.9302 95.4813 16.7599 96.7005 16.7599C97.8241 16.7599 98.8241 16.9208 99.7005 17.2424C100.576 17.5641 101.262 18.0371 101.758 18.6615C102.253 19.267 102.5 20.0145 102.5 20.9038V30.1565H98.929V21.6701C98.929 21.3106 98.8719 21.0079 98.7576 20.7619C98.6433 20.497 98.4621 20.2794 98.2148 20.1091C97.9862 19.9388 97.7098 19.8158 97.3862 19.7401C97.0621 19.6644 96.7005 19.6266 96.3005 19.6266C95.6907 19.6266 95.1098 19.6928 94.5576 19.8252C94.0049 19.9577 93.529 20.1185 93.129 20.3077C92.729 20.497 92.4335 20.6578 92.2433 20.7902ZM114.429 22.2094C114.429 21.339 114.257 20.6767 113.914 20.2226C113.571 19.7685 113.019 19.5414 112.257 19.5414C111.743 19.5414 111.286 19.6549 110.886 19.882C110.486 20.0901 110.181 20.3929 109.971 20.7902C109.762 21.1876 109.657 21.6607 109.657 22.2094V30.1565H105.943V17.1005H109.657V19.0873C110.057 18.3493 110.581 17.7911 111.229 17.4127C111.895 17.0154 112.695 16.8167 113.629 16.8167C115.19 16.8167 116.352 17.2614 117.114 18.1507C117.876 19.0211 118.257 20.2415 118.257 21.812V30.1565H114.429V22.2094ZM124.703 23.6285C124.703 24.3854 124.874 25.0476 125.217 25.6153C125.56 26.1829 126.017 26.6276 126.588 26.9493C127.179 27.2709 127.826 27.4318 128.531 27.4318C129.103 27.4318 129.655 27.3466 130.188 27.1763C130.721 26.9871 131.198 26.7411 131.617 26.4384C132.055 26.1167 132.388 25.7478 132.617 25.3315V29.1063C132.16 29.5226 131.56 29.8537 130.817 30.0997C130.093 30.3268 129.246 30.4403 128.274 30.4403C126.884 30.4403 125.626 30.1565 124.503 29.5888C123.398 29.0212 122.521 28.2265 121.874 27.2047C121.246 26.164 120.931 24.9719 120.931 23.6285C120.931 22.2661 121.246 21.0741 121.874 20.0523C122.521 19.0305 123.398 18.2358 124.503 17.6682C125.626 17.1005 126.884 16.8167 128.274 16.8167C129.246 16.8167 130.093 16.9397 130.817 17.1856C131.56 17.4127 132.16 17.7249 132.617 18.1223V21.8972C132.388 21.4809 132.046 21.1214 131.588 20.8186C131.15 20.497 130.664 20.251 130.131 20.0807C129.598 19.9104 129.064 19.8252 128.531 19.8252C127.826 19.8252 127.179 19.9955 126.588 20.3361C126.017 20.6578 125.56 21.1024 125.217 21.6701C124.874 22.2378 124.703 22.8906 124.703 23.6285ZM142.081 30.4403C140.653 30.4403 139.405 30.1565 138.338 29.5888C137.272 29.0212 136.443 28.2359 135.853 27.2331C135.281 26.2113 134.996 25.0098 134.996 23.6285C134.996 22.2283 135.281 21.0267 135.853 20.0239C136.443 19.0021 137.272 18.2169 138.338 17.6682C139.405 17.1005 140.663 16.8167 142.11 16.8167C143.558 16.8167 144.786 17.0816 145.796 17.6114C146.824 18.1223 147.605 18.8792 148.138 19.882C148.672 20.8659 148.938 22.058 148.938 23.4582C148.938 23.6285 148.929 23.8082 148.91 23.9975C148.91 24.1867 148.9 24.3381 148.881 24.4516H137.11V22.181H145.653L144.653 23.4866C144.729 23.3731 144.796 23.2217 144.853 23.0325C144.929 22.8243 144.967 22.654 144.967 22.5216C144.967 21.8782 144.843 21.3295 144.596 20.8754C144.367 20.4213 144.034 20.0617 143.596 19.7968C143.158 19.532 142.643 19.3995 142.053 19.3995C141.329 19.3995 140.72 19.5603 140.224 19.882C139.748 20.1848 139.377 20.6483 139.11 21.2727C138.863 21.8782 138.729 22.6351 138.71 23.5434C138.71 24.4138 138.834 25.1517 139.081 25.7572C139.348 26.3627 139.738 26.8263 140.253 27.1479C140.767 27.4696 141.386 27.6304 142.11 27.6304C142.929 27.6304 143.624 27.4791 144.196 27.1763C144.786 26.8547 145.272 26.3816 145.653 25.7572L148.881 26.7506C148.196 27.9805 147.281 28.9077 146.138 29.5321C145.015 30.1376 143.663 30.4403 142.081 30.4403Z" fill="white"/>
<path d="M13.9934 20.7532L11.288 18.0656L11.665 17.691L14.3705 20.3787C14.4343 20.4421 14.5091 20.4789 14.5947 20.489C14.6802 20.4991 14.7513 20.476 14.8079 20.4199C14.8644 20.3637 14.8876 20.2931 14.8774 20.208C14.8672 20.123 14.8302 20.0488 14.7664 19.9854L12.0609 17.2978L12.4379 16.9232L15.1434 19.6109C15.2392 19.706 15.3384 19.7422 15.4412 19.7194C15.5439 19.6966 15.6099 19.6311 15.6391 19.5227C15.6684 19.4144 15.6351 19.3127 15.5393 19.2176L12.8338 16.53L13.2109 16.1554L15.8924 18.8193C16.0042 18.9303 16.1114 18.9743 16.2141 18.9516C16.3168 18.9288 16.3828 18.8632 16.4121 18.7549C16.4413 18.6466 16.408 18.5449 16.3122 18.4498L12.7688 14.9297C12.5133 14.676 12.2273 14.5479 11.9106 14.5454C11.5939 14.5429 11.335 14.6415 11.1339 14.8413L4.74126 8.49086C4.43796 8.18961 4.12507 8.07231 3.80259 8.13896C3.48011 8.20562 3.2853 8.39915 3.21819 8.71952C3.15108 9.03984 3.26915 9.35068 3.57244 9.65198L9.9651 16.0024C9.77657 16.1896 9.68443 16.4477 9.68863 16.7765C9.69282 17.1053 9.79073 17.3648 9.98224 17.5551L13.5976 21.1465C13.6934 21.2416 13.7926 21.2778 13.8954 21.255C13.9981 21.2323 14.0641 21.1667 14.0933 21.0584C14.1225 20.9501 14.0893 20.8483 13.9934 20.7532Z" fill="white"/>
</svg>
