<svg width="34" height="34" viewBox="0 0 34 34" fill="none" xmlns="http://www.w3.org/2000/svg">
<g clip-path="url(#clip0_0_30)">
<path d="M17.1417 2.83325C16.8583 2.83325 16.4333 2.97492 16.15 3.25825L13.3167 5.80825L9.77501 5.24159C8.92501 5.09992 8.21668 5.66659 8.07501 6.51659L7.50835 10.0583L4.25001 11.7583C3.54168 12.1833 3.25835 13.0333 3.54168 13.7416L5.24168 16.9999L3.68335 20.2583C3.40001 20.9666 3.68335 21.8166 4.25001 22.2416L7.50835 23.9416L8.07501 27.4833C8.21668 28.3333 8.92501 28.7583 9.77501 28.7583L13.3167 28.1916L15.8667 30.7416C16.4333 31.3083 17.2833 31.3083 17.85 30.7416L20.4 28.1916L23.9417 28.7583C24.7917 28.8999 25.5 28.3333 25.6417 27.4833L26.2083 23.9416L29.4667 22.2416C30.175 21.8166 30.4583 20.9666 30.0333 20.2583L28.7583 16.9999L30.3167 13.7416C30.6 13.0333 30.3167 12.1833 29.75 11.7583L26.4917 10.0583L25.925 6.51659C25.7833 5.66659 25.075 5.24159 24.225 5.24159L20.6833 5.80825L18.1333 3.25825C17.85 2.97492 17.425 2.83325 17.1417 2.83325ZM14.025 9.91659C14.875 9.91659 15.5833 10.1999 16.0083 10.7666C16.575 11.3333 16.7167 11.8999 16.7167 12.7499V13.4583C16.7167 14.3083 16.4333 15.0166 16.0083 15.4416C15.5833 16.0083 14.875 16.2916 14.025 16.2916C13.175 16.2916 12.4667 16.0083 12.0417 15.5833C11.6167 15.0166 11.3333 14.3083 11.3333 13.4583V12.7499C11.3333 11.8999 11.6167 11.3333 12.0417 10.7666C12.4667 10.1999 13.175 9.91659 14.025 9.91659ZM14.025 11.3333C13.7417 11.3333 13.4583 11.6166 13.3167 11.7583C13.175 12.0416 13.0333 12.3249 13.0333 12.7499V13.4583C13.0333 13.8833 13.175 14.1666 13.3167 14.4499C13.4583 14.7333 13.7417 14.8749 14.025 14.8749C14.3083 14.8749 14.5917 14.7333 14.7333 14.4499C14.875 14.1666 15.0167 13.8833 15.0167 13.4583V12.7499C15.0167 12.3249 14.875 12.0416 14.7333 11.7583C14.5917 11.4749 14.3083 11.3333 14.025 11.3333ZM19.2667 11.3333L20.5417 12.0416L14.7333 22.8083L13.4583 22.0999L19.2667 11.3333ZM19.975 17.7083C20.825 17.7083 21.5333 17.9916 21.9583 18.5583C22.3833 19.1249 22.6667 19.8333 22.6667 20.5416V21.2499C22.6667 22.0999 22.3833 22.8083 21.9583 23.2333C21.5333 23.6583 20.825 24.0833 19.975 24.0833C19.125 24.0833 18.4167 23.7999 17.9917 23.2333C17.5667 22.6666 17.2833 21.9583 17.2833 21.2499V20.5416C17.2833 19.6916 17.5667 19.1249 17.9917 18.5583C18.4167 17.9916 19.125 17.7083 19.975 17.7083ZM19.975 19.1249C19.6917 19.1249 19.4083 19.2666 19.2667 19.5499C19.125 19.8333 18.9833 20.1166 18.9833 20.5416V21.2499C18.9833 21.6749 19.125 21.9583 19.2667 22.2416C19.4083 22.5249 19.6917 22.6666 19.975 22.6666C20.4 22.6666 20.5417 22.5249 20.6833 22.2416C20.825 21.9583 20.825 21.6749 20.825 21.2499V20.5416C20.825 20.1166 20.6833 19.8333 20.5417 19.5499C20.5417 19.2666 20.2583 19.1249 19.975 19.1249Z" fill="black"/>
</g>
<defs>
<clipPath id="clip0_0_30">
<rect width="34" height="34" fill="white"/>
</clipPath>
</defs>
</svg>
