<svg width="226" height="53" viewBox="0 0 226 53" fill="none" xmlns="http://www.w3.org/2000/svg">
<path d="M31.9873 14.875C30.7021 13.7035 28.4314 14.5312 28.4314 14.5312C28.4314 14.5312 30.164 11.2015 26.6042 9.65016C23.0445 8.09878 20.8366 12.6509 20.8366 12.6509C20.8366 12.6509 20.9605 7.62874 16.0682 8.30052C11.1759 8.97182 13.7599 13.3147 13.7599 13.3147C13.7599 13.3147 9.88057 10.6787 8.2946 12.9975C7.02973 14.8471 8.80624 16.1642 9.57647 16.6218C9.24119 16.5284 8.62985 16.5514 7.64855 17.2476C5.66025 18.6575 6.78962 21.0935 6.93722 22.4437C6.96998 22.7428 7.0581 22.9703 7.17381 23.1479C7.05171 23.608 7.10851 24.0127 7.10851 24.0127C7.10851 24.0127 8.91559 40.5863 9.3541 44.6059C9.79212 48.6254 10.6102 49.0412 11.8986 49.4116C13.1869 49.7824 24.8235 50.3873 26.2972 50.0531C27.7709 49.7189 28.7279 48.5612 29.2423 47.1517C29.7561 45.7425 31.0499 32.4738 31.458 29.1601C31.681 27.3499 32.0688 25.5114 31.8504 24.1184L32.2348 21.9697L32.826 19.6278C32.826 19.6278 33.2731 16.0465 31.9873 14.875Z" fill="#65A4FF"/>
<path d="M6.60979 19.4448L9.61614 47.0145C9.79932 48.6944 11.2121 49.9705 12.9017 49.982L19.3651 50.0272L19.452 50.028L25.915 50.0726C27.605 50.0846 29.0354 48.8287 29.2419 47.1516L32.6183 19.7394L6.60979 19.4448Z" stroke="#15325C" stroke-width="1.33333" stroke-miterlimit="10"/>
<path d="M33.5113 15.1391C33.5609 8.05353 27.3719 2.26646 19.6882 2.2124C12.0043 2.15931 5.73545 7.85949 5.68594 14.945C5.6833 15.3556 5.7032 15.7613 5.74158 16.1626L6.6769 16.1693L33.4389 16.3557C33.4829 15.9552 33.5087 15.5497 33.5113 15.1391Z" stroke="#15325C" stroke-width="1.33333" stroke-miterlimit="10"/>
<path d="M33.3361 16.3548L20.1385 16.2631L18.8755 16.2545L5.67755 16.1618L3.86963 19.5454L18.8515 19.6498L20.115 19.6585L35.0968 19.7629L33.3361 16.3548Z" stroke="#15325C" stroke-width="1.33333" stroke-miterlimit="10"/>
<path d="M79.1485 14.875C77.8632 13.7035 75.5925 14.5312 75.5925 14.5312C75.5925 14.5312 77.3251 11.2015 73.7654 9.65016C70.2056 8.09878 67.9978 12.6509 67.9978 12.6509C67.9978 12.6509 68.1217 7.62874 63.2293 8.30052C58.337 8.97182 60.921 13.3147 60.921 13.3147C60.921 13.3147 57.0417 10.6787 55.4557 12.9975C54.1909 14.8471 55.9674 16.1642 56.7376 16.6218C56.4023 16.5284 55.791 16.5514 54.8097 17.2476C52.8214 18.6575 53.9508 21.0935 54.0983 22.4437C54.1311 22.7428 54.2192 22.9703 54.3349 23.1479C54.2128 23.608 54.2696 24.0127 54.2696 24.0127C54.2696 24.0127 56.0767 40.5863 56.5152 44.6059C56.9532 48.6254 57.7713 49.0412 59.0597 49.4116C60.348 49.7824 71.9847 50.3873 73.4583 50.0531C74.932 49.7189 75.889 48.5612 76.4034 47.1517C76.9172 45.7425 78.2111 32.4738 78.6192 29.1601C78.8421 27.3499 79.2299 25.5114 79.0115 24.1184L79.3959 21.9697L79.9871 19.6278C79.9871 19.6278 80.4343 16.0465 79.1485 14.875Z" fill="#65A4FF"/>
<path d="M53.7704 19.4449L56.7768 47.0146C56.96 48.6946 58.3728 49.9707 60.0623 49.9821L66.5258 50.0273L66.6126 50.0281L73.0757 50.0727C74.7656 50.0847 76.196 48.8288 76.4025 47.1517L79.7789 19.7395L53.7704 19.4449Z" stroke="#15325C" stroke-width="1.33333" stroke-miterlimit="10"/>
<path d="M80.672 15.1391C80.7215 8.05353 74.5325 2.26646 66.8488 2.2124C59.1649 2.15931 52.8961 7.85949 52.8466 14.945C52.8439 15.3556 52.8638 15.7613 52.9022 16.1626L53.8375 16.1693L80.5995 16.3557C80.6435 15.9552 80.6693 15.5497 80.672 15.1391Z" stroke="#15325C" stroke-width="1.33333" stroke-miterlimit="10"/>
<path d="M80.4963 16.3548L67.2987 16.2631L66.0357 16.2545L52.8377 16.1618L51.0298 19.5454L66.0116 19.6498L67.2752 19.6585L82.257 19.7629L80.4963 16.3548Z" stroke="#15325C" stroke-width="1.33333" stroke-miterlimit="10"/>
<path d="M100.931 19.1382L103.937 46.708C104.12 48.3879 105.533 49.664 107.222 49.6754L113.686 49.7207L113.773 49.7214L120.236 49.7661C121.926 49.7781 123.356 48.5222 123.563 46.845L126.939 19.4329L100.931 19.1382Z" stroke="#15325C" stroke-width="1.33333" stroke-miterlimit="10"/>
<path d="M127.832 14.8322C127.881 7.74664 121.692 1.95957 114.008 1.90551C106.325 1.85243 100.056 7.5526 100.006 14.6381C100.004 15.0488 100.024 15.4544 100.062 15.8557L100.997 15.8624L127.759 16.0489C127.803 15.6483 127.829 15.2428 127.832 14.8322Z" stroke="#15325C" stroke-width="1.33333" stroke-miterlimit="10"/>
<path d="M127.656 16.0484L114.459 15.9567L113.196 15.9481L99.9979 15.8554L98.1899 19.239L113.172 19.3434L114.435 19.3521L129.417 19.4565L127.656 16.0484Z" stroke="#15325C" stroke-width="1.33333" stroke-miterlimit="10"/>
<path d="M148.09 19.4449L151.097 47.0146C151.28 48.6946 152.693 49.9707 154.382 49.9821L160.846 50.0273L160.932 50.0281L167.395 50.0727C169.085 50.0847 170.516 48.8288 170.722 47.1517L174.099 19.7395L148.09 19.4449Z" stroke="#15325C" stroke-width="1.33333" stroke-miterlimit="10"/>
<path d="M174.992 15.1391C175.042 8.05353 168.853 2.26646 161.169 2.2124C153.485 2.15931 147.216 7.85949 147.167 14.945C147.164 15.3556 147.184 15.7613 147.223 16.1626L148.158 16.1693L174.92 16.3557C174.964 15.9552 174.99 15.5497 174.992 15.1391Z" stroke="#15325C" stroke-width="1.33333" stroke-miterlimit="10"/>
<path d="M174.816 16.3548L161.619 16.2631L160.355 16.2545L147.158 16.1618L145.35 19.5454L160.331 19.6498L161.595 19.6585L176.577 19.7629L174.816 16.3548Z" stroke="#15325C" stroke-width="1.33333" stroke-miterlimit="10"/>
<path d="M195.25 19.4449L198.257 47.0146C198.44 48.6946 199.853 49.9707 201.542 49.9821L208.006 50.0273L208.093 50.0281L214.556 50.0727C216.246 50.0847 217.676 48.8288 217.883 47.1517L221.259 19.7395L195.25 19.4449Z" stroke="#15325C" stroke-width="1.33333" stroke-miterlimit="10"/>
<path d="M222.152 15.1391C222.202 8.05353 216.013 2.26646 208.329 2.2124C200.645 2.15931 194.377 7.85949 194.327 14.945C194.324 15.3556 194.344 15.7613 194.383 16.1626L195.318 16.1693L222.08 16.3557C222.124 15.9552 222.15 15.5497 222.152 15.1391Z" stroke="#15325C" stroke-width="1.33333" stroke-miterlimit="10"/>
<path d="M221.977 16.3548L208.779 16.2631L207.516 16.2545L194.318 16.1618L192.51 19.5454L207.492 19.6498L208.756 19.6585L223.737 19.7629L221.977 16.3548Z" stroke="#15325C" stroke-width="1.33333" stroke-miterlimit="10"/>
</svg>
